<?xml version="1.0" encoding="UTF-8" standalone="no"?>
<!-- Created with Inkscape (http://www.inkscape.org/) -->

<svg
   xmlns:dc="http://purl.org/dc/elements/1.1/"
   xmlns:cc="http://creativecommons.org/ns#"
   xmlns:rdf="http://www.w3.org/1999/02/22-rdf-syntax-ns#"
   xmlns:svg="http://www.w3.org/2000/svg"
   xmlns="http://www.w3.org/2000/svg"
   xmlns:sodipodi="http://sodipodi.sourceforge.net/DTD/sodipodi-0.dtd"
   xmlns:inkscape="http://www.inkscape.org/namespaces/inkscape"
   width="144.95137mm"
   height="295.57706mm"
   viewBox="0 0 144.95137 295.57706"
   version="1.1"
   id="svg8"
   inkscape:version="0.92.3 (2405546, 2018-03-11)"
   sodipodi:docname="Bad Stomach.svg">
  <title
     id="title160">Bad Stomach</title>
  <defs
     id="defs2" />
  <sodipodi:namedview
     id="base"
     pagecolor="#ffffff"
     bordercolor="#666666"
     borderopacity="1.0"
     inkscape:pageopacity="0.0"
     inkscape:pageshadow="2"
     inkscape:zoom="0.24814453"
     inkscape:cx="-498.55301"
     inkscape:cy="855.48139"
     inkscape:document-units="mm"
     inkscape:current-layer="layer1"
     showgrid="false"
     fit-margin-top="0"
     fit-margin-left="0"
     fit-margin-right="0"
     fit-margin-bottom="0"
     inkscape:window-width="1600"
     inkscape:window-height="845"
     inkscape:window-x="0"
     inkscape:window-y="27"
     inkscape:window-maximized="1" />
  <metadata
     id="metadata5">
    <rdf:RDF>
      <cc:Work
         rdf:about="">
        <dc:format>image/svg+xml</dc:format>
        <dc:type
           rdf:resource="http://purl.org/dc/dcmitype/StillImage" />
        <dc:title>Bad Stomach</dc:title>
        <dc:date>2022</dc:date>
        <dc:creator>
          <cc:Agent>
            <dc:title>Doodleguy</dc:title>
          </cc:Agent>
        </dc:creator>
        <dc:rights>
          <cc:Agent>
            <dc:title>public domain</dc:title>
          </cc:Agent>
        </dc:rights>
        <cc:license
           rdf:resource="http://creativecommons.org/publicdomain/zero/1.0/" />
      </cc:Work>
      <cc:License
         rdf:about="http://creativecommons.org/publicdomain/zero/1.0/">
        <cc:permits
           rdf:resource="http://creativecommons.org/ns#Reproduction" />
        <cc:permits
           rdf:resource="http://creativecommons.org/ns#Distribution" />
        <cc:permits
           rdf:resource="http://creativecommons.org/ns#DerivativeWorks" />
      </cc:License>
    </rdf:RDF>
  </metadata>
  <g
     inkscape:groupmode="layer"
     id="layer2"
     inkscape:label="bund"
     transform="translate(-0.93985274,-0.81327437)" />
  <g
     inkscape:label="Layer 1"
     inkscape:groupmode="layer"
     id="layer1"
     transform="translate(-0.93985274,-0.81327437)">
    <g
       id="g158"
       transform="matrix(1.7976002,0,0,1.7976002,-194.33488,-83.066151)">
      <path
         transform="scale(0.26458333)"
         inkscape:connector-curvature="0"
         id="path37"
         d="m 578.26329,219.72954 c -3.62814,0.15256 -7.37424,-0.25222 -10.91548,0.68871 -1.83746,0.86465 -1.3058,3.55236 -0.16332,4.79634 1.43845,1.34265 3.4578,2.65479 3.43713,4.86029 -0.11712,2.27408 -1.18102,4.53364 -2.69185,6.21556 -0.70041,0.42408 -0.40227,-1.06659 -0.5249,-1.42709 -0.31504,-2.90985 0.75902,-6.45581 -1.59337,-8.76722 -2.12106,-2.19903 -5.60052,-2.6893 -8.41745,-1.77686 -2.24941,1.48149 -2.2572,4.56741 -2.72024,6.95082 -1.41082,12.98644 -1.247,26.0906 -0.89273,39.13066 0.49452,14.10105 2.55609,28.08289 4.03981,42.09981 2.00394,18.02012 4.49447,35.98397 6.41938,54.01223 -5.67587,5.93962 -11.91771,11.41855 -16.80588,18.05786 -2.41001,3.94438 -5.12668,7.78974 -6.78998,12.12488 -0.92154,3.27787 -1.86583,6.82947 -1.08487,10.22311 1.08688,2.02431 2.88936,3.85342 5.07083,4.66745 3.91597,0.92477 8.01311,0.62133 11.92789,1.6219 4.18735,1.09916 8.49826,2.11648 12.86705,1.61329 2.04488,0.0129 4.34165,-0.85105 6.26075,0.13553 2.07296,2.06751 1.80715,5.46851 3.72098,7.60528 2.16688,1.16832 4.65395,-0.30807 6.5896,-1.34274 1.89226,-1.08801 3.8282,-2.82285 6.14308,-2.64388 1.87756,0.4987 1.63821,2.96644 2.317,4.40427 0.78032,1.52035 2.82378,1.92494 4.39247,2.06316 3.39098,-1.32599 6.10238,-3.95695 9.03807,-6.05005 6.19673,-4.83034 13.38362,-8.7908 21.32105,-9.56763 4.47836,-0.63419 9.11028,-0.33962 13.54485,-0.57624 -0.36611,-3.87243 0.25267,-8.13463 -1.69471,-11.67208 -1.92904,-2.89697 -5.82715,-2.09845 -8.70277,-3.06473 -2.85517,-0.82733 -4.25414,-4.10831 -3.56602,-6.87919 1.58228,-8.49214 4.61683,-16.63323 6.51085,-25.05837 2.64363,-11.42911 4.81468,-22.96226 7.47126,-34.38731 1.7508,-8.59553 2.793,-17.32279 4.93446,-25.83897 2.88357,-12.6502 4.76815,-25.50712 6.52308,-38.35448 0.77387,-6.71132 1.15714,-13.47919 1.52611,-20.21073 -3.48025,-3.67606 -7.39684,-7.11041 -12.22122,-8.87596 -6.94227,-2.73516 -14.0569,-5.21915 -21.41766,-6.53325 -2.69873,-0.61433 -4.66695,1.69987 -6.31537,3.43656 -0.90213,0.6795 -1.84201,2.3201 -3.15082,1.84426 -1.18027,-0.79174 -0.77875,-2.71007 0.63459,-2.94471 1.59668,0.0275 2.8648,-1.8564 1.81425,-3.20986 -1.5648,-1.55993 -3.99949,-1.75205 -5.99058,-2.52209 -6.90557,-1.86986 -13.84775,-3.84555 -20.97479,-4.64332 -3.28284,-0.2539 -6.58079,-0.19411 -9.87053,-0.20521 z m 32.69383,31.10488 c 3.51691,0.55885 6.71987,2.37636 10.14139,3.3564 5.0398,1.78138 10.35911,2.90572 15.19755,5.16534 1.56116,1.8232 1.14164,4.54275 0.70444,6.72718 -0.36784,2.70006 -3.24092,3.58306 -5.52551,4.03011 -1.78862,0.38364 -3.70233,0.47825 -5.3575,-0.39867 -4.66999,-1.07245 -9.57643,-0.7666 -14.21635,-1.91116 -3.15501,-1.71184 -4.69867,-5.48385 -5.01376,-8.89143 -0.26805,-2.80425 -4.7e-4,-6.50839 2.90976,-7.86181 0.35124,-0.13824 0.7676,-0.21586 1.15998,-0.21596 z m -31.99036,0.72412 c 8.35863,0.93848 16.74964,1.60303 25.16037,1.80441 -0.0173,4.95282 0.68344,10.04991 -0.52834,14.90457 -0.34454,1.6274 -2.36799,1.18702 -3.54978,1.50236 -8.62811,0.36129 -17.27836,0.4597 -25.91057,0.20956 -2.52289,-0.40827 -5.70509,-0.51708 -7.31503,-2.79909 -1.18709,-2.61215 -0.43754,-5.62336 -0.0325,-8.32793 0.6207,-3.36981 3.30869,-5.75511 5.67395,-8.00128 2.16729,0.2358 4.33458,0.4716 6.50187,0.7074 z m 28.36432,28.21331 c 2.85539,-0.13053 5.95216,0.42682 7.94471,2.65102 3.16549,2.72198 4.88018,7.26657 3.43664,11.28444 -1.84595,5.74467 -5.83393,10.9612 -11.18113,13.8533 -3.06935,1.81946 -6.65372,0.39031 -9.81169,-0.43359 -3.49649,-1.32007 -7.38385,-3.31329 -8.80008,-7.01918 -0.40219,-2.41574 -0.43983,-4.9775 0.0866,-7.36964 1.31783,-3.27095 4.40637,-5.37087 6.69421,-7.92558 2.93456,-3.39288 7.19744,-5.06862 11.63076,-5.04077 z m -24.29801,91.81227 c 5.43114,0.45203 11.32578,0.69861 15.88302,4.06779 2.83172,1.71926 6.11459,2.78185 8.67572,4.89375 0.85176,2.63717 0.35712,5.54691 0.80954,8.28406 0.48819,5.7845 3.48587,11.27999 2.70335,17.16409 -1.15882,1.76179 -3.61549,1.94258 -5.49268,2.42222 -10.01769,1.48464 -20.20985,1.58553 -30.24178,2.97231 -2.55375,0.52686 -4.20282,-2.02369 -5.70248,-3.62309 -2.34702,-3.07342 -2.95073,-7.07813 -3.60488,-10.77577 -0.72842,-4.45396 1.34324,-8.72081 2.97427,-12.74628 2.20087,-4.96595 5.90681,-9.01509 9.54295,-12.9626 1.48432,0.10118 2.96865,0.20235 4.45297,0.30352 z"
         style="opacity:1;vector-effect:none;fill:#dde9af;fill-opacity:1;stroke:#000000;stroke-width:0.53785008;stroke-linecap:round;stroke-linejoin:miter;stroke-miterlimit:4;stroke-dasharray:none;stroke-dashoffset:0;stroke-opacity:1" />
      <path
         transform="scale(0.26458333)"
         inkscape:connector-curvature="0"
         id="path39"
         d="m 607.43691,282.74581 c -3.59471,0.0297 -7.38756,0.71586 -10.27301,3.00124 -3.31394,2.55751 -5.70503,6.58414 -5.65828,10.84314 0.0322,2.49936 1.23473,5.10444 3.52518,6.2858 2.23417,1.13251 4.75139,1.58214 7.22,1.84709 1.85904,-0.0301 3.74753,0.11759 5.58405,-0.23151 1.53012,-0.2694 2.87092,-1.17832 3.81847,-2.39004 2.29648,-2.92325 3.41681,-6.62494 3.7805,-10.28488 0.17716,-2.39469 0.11614,-4.97009 -1.09924,-7.11071 -0.76242,-1.12011 -2.20317,-1.46928 -3.45258,-1.73664 -1.13637,-0.19678 -2.29433,-0.22777 -3.44509,-0.22349 z"
         style="opacity:1;vector-effect:none;fill:#dde9af;fill-opacity:1;stroke:#000000;stroke-width:0.19015872;stroke-linecap:round;stroke-linejoin:miter;stroke-miterlimit:4;stroke-dasharray:none;stroke-dashoffset:0;stroke-opacity:1" />
      <path
         transform="scale(0.26458333)"
         inkscape:connector-curvature="0"
         id="path41"
         d="m 575.38587,254.84123 c -1.21646,0.0445 -2.52988,0.0356 -3.60065,0.69776 -0.96202,0.60471 -1.30292,1.78225 -1.43019,2.84749 -0.20349,1.86446 -0.12063,3.74532 -0.1438,5.61726 0.0122,0.66896 -0.0247,1.34835 0.0178,2.01091 0.21178,0.13367 0.53823,0.0232 0.79434,0.0593 2.28107,0 4.56215,0 6.84322,0 0.21337,-0.15515 0.0513,-0.52493 0.10543,-0.76707 0.002,-2.65553 0.0918,-5.31284 -0.005,-7.96736 -0.0658,-0.71011 -0.0769,-1.52411 -0.58973,-2.07801 -0.52588,-0.50746 -1.32586,-0.39234 -1.99091,-0.42029 z"
         style="opacity:1;vector-effect:none;fill:#ffffff;fill-opacity:1;stroke:#000000;stroke-width:0.09507936;stroke-linecap:round;stroke-linejoin:miter;stroke-miterlimit:4;stroke-dasharray:none;stroke-dashoffset:0;stroke-opacity:1" />
      <path
         transform="scale(0.26458333)"
         inkscape:connector-curvature="0"
         id="path43"
         d="m 596.9664,256.85823 c -0.76876,0.015 -1.67484,-0.0412 -2.26319,0.55291 -0.45449,0.54897 -0.41229,1.31802 -0.47486,1.98818 -0.0597,1.27317 -0.0561,2.63826 -0.76765,3.75471 -0.28378,0.29538 -0.62456,0.55089 -0.79436,0.93941 -0.37172,0.77445 -0.5384,1.67327 -0.40024,2.52603 0.0968,0.64724 0.64209,1.15184 1.27765,1.26156 1.05947,0.251 2.16443,0.21513 3.24188,0.12842 1.13965,-0.15882 2.32411,-0.42018 3.27036,-1.10865 0.7882,-0.63759 0.91074,-1.72572 0.99641,-2.66935 0.10444,-1.67134 -0.19258,-3.33859 -0.53438,-4.96802 -0.17292,-0.77568 -0.41401,-1.67388 -1.15442,-2.097 -0.72446,-0.38906 -1.60673,-0.27946 -2.3972,-0.3082 z"
         style="opacity:1;vector-effect:none;fill:#ffffff;fill-opacity:1;stroke:#000000;stroke-width:0.09507936;stroke-linecap:round;stroke-linejoin:miter;stroke-miterlimit:4;stroke-dasharray:none;stroke-dashoffset:0;stroke-opacity:1" />
      <path
         transform="scale(0.26458333)"
         inkscape:connector-curvature="0"
         id="path45"
         d="m 633.08716,260.00647 c -0.97609,0.0451 -1.88463,0.45528 -2.78782,0.79055 -1.68904,0.67995 -3.43732,1.3599 -4.81808,2.58442 -0.47686,0.44529 -0.97673,1.01507 -0.94296,1.71136 0.021,0.56866 0.48036,0.99883 0.96997,1.21833 1.1779,0.53778 2.50694,0.58663 3.78116,0.56877 1.09128,-0.0391 2.19688,-0.0899 3.25741,-0.36929 0.57555,-0.15196 1.08279,-0.56026 1.29857,-1.12259 0.33459,-0.84146 0.37237,-1.76183 0.45773,-2.65314 0.0249,-0.63991 0.11406,-1.2984 -0.0447,-1.92755 -0.0938,-0.43521 -0.47295,-0.83433 -0.94328,-0.80019 -0.076,-10e-4 -0.15201,-0.002 -0.22801,-6.7e-4 z"
         style="opacity:1;vector-effect:none;fill:#ffffff;fill-opacity:1;stroke:#000000;stroke-width:0.06723126;stroke-linecap:round;stroke-linejoin:miter;stroke-miterlimit:4;stroke-dasharray:none;stroke-dashoffset:0;stroke-opacity:1" />
      <path
         transform="scale(0.26458333)"
         inkscape:connector-curvature="0"
         id="path47"
         d="m 611.78041,254.84788 c -0.5002,-0.006 -0.9332,0.35175 -1.11649,0.80163 -0.36329,0.85436 -0.37496,1.8044 -0.42478,2.71701 -0.0393,1.68121 0.0134,3.3763 0.32349,5.03274 0.0963,0.37771 0.15485,0.83518 0.49697,1.07641 0.66795,0.3623 1.44911,0.41775 2.19052,0.50167 1.66721,0.13297 3.35839,0.11715 5.00812,-0.17821 0.37928,-0.0937 0.81741,-0.14463 1.10309,-0.43666 0.20405,-0.25874 -0.0304,-0.57986 -0.15557,-0.81643 -0.64894,-1.01954 -1.5245,-1.86729 -2.35407,-2.73738 -1.12637,-1.14315 -2.27794,-2.28463 -3.07828,-3.69199 -0.19215,-0.31961 -0.31585,-0.67471 -0.3446,-1.04763 -0.11469,-0.76928 -0.90749,-1.26197 -1.6484,-1.22116 z"
         style="opacity:1;vector-effect:none;fill:#ffffff;fill-opacity:1;stroke:#000000;stroke-width:0.06723126;stroke-linecap:round;stroke-linejoin:miter;stroke-miterlimit:4;stroke-dasharray:none;stroke-dashoffset:0;stroke-opacity:1" />
      <path
         transform="scale(0.26458333)"
         inkscape:connector-curvature="0"
         id="path49"
         d="m 618.65764,255.84574 c -0.48443,0.002 -1.04975,0.195 -1.22319,0.69246 -0.25258,0.723 0.0732,1.4956 0.4618,2.10571 0.66349,1.02955 1.65961,1.81502 2.77425,2.3079 0.72039,0.32066 1.46202,0.64642 2.25244,0.73612 0.54794,0.0388 1.16555,-0.006 1.57603,-0.41814 0.52081,-0.49095 0.73097,-1.22157 0.81021,-1.91245 0.0563,-0.48994 -0.13762,-1.03772 -0.60003,-1.26722 -0.55609,-0.29485 -1.21147,-0.20738 -1.81457,-0.30102 -0.67224,-0.0936 -1.38631,-0.29471 -1.86804,-0.80097 -0.34686,-0.48383 -0.85874,-0.83043 -1.42702,-1.00052 -0.3039,-0.0955 -0.62284,-0.14878 -0.94188,-0.14187 z"
         style="opacity:1;vector-effect:none;fill:#0088aa;fill-opacity:1;stroke:#000000;stroke-width:0.06723126;stroke-linecap:round;stroke-linejoin:miter;stroke-miterlimit:4;stroke-dasharray:none;stroke-dashoffset:0;stroke-opacity:1" />
      <path
         transform="scale(0.26458333)"
         inkscape:connector-curvature="0"
         id="path51"
         d="m 582.8629,254.84664 c -0.37401,0.001 -0.61596,0.34181 -0.7981,0.62565 -0.50885,0.86047 -0.7886,1.83242 -1.03848,2.79359 -0.27522,1.13418 -0.47802,2.29046 -0.54393,3.45676 -0.006,0.70221 -0.0587,1.4313 0.18306,2.10423 0.19277,0.54668 0.74479,0.84887 1.26862,1.00942 0.62116,0.19694 1.27673,0.25142 1.92533,0.23017 0.62546,-0.002 1.25308,-0.0215 1.86885,-0.14094 1.22576,-0.21489 2.46441,-0.56041 3.50159,-1.27169 0.76555,-0.53232 1.28807,-1.349 1.63541,-2.20094 0.49098,-1.25273 0.3676,-2.74082 -0.38055,-3.86773 -0.63005,-0.98051 -1.65316,-1.66492 -2.76509,-1.98221 -0.84204,-0.23933 -1.71268,-0.35653 -2.57457,-0.50042 -0.75706,-0.10723 -1.51665,-0.23478 -2.28214,-0.25589 z"
         style="opacity:1;vector-effect:none;fill:#0088aa;fill-opacity:1;stroke:#000000;stroke-width:0.04753968;stroke-linecap:round;stroke-linejoin:miter;stroke-miterlimit:4;stroke-dasharray:none;stroke-dashoffset:0;stroke-opacity:1" />
      <path
         transform="scale(0.26458333)"
         inkscape:connector-curvature="0"
         id="path53"
         d="m 588.35816,422.96699 c -1.5462,-0.0453 -2.99086,0.91073 -3.66667,2.28258 -1.3503,2.66288 -1.37465,5.73618 -1.52016,8.65198 -0.14594,4.83799 -0.30223,9.71596 -1.42542,14.43996 -0.91351,4.79559 -1.41643,9.66297 -1.67194,14.53433 0.40163,0.31937 1.02545,0.33963 1.5089,0.53902 2.16289,0.57842 4.30103,1.36233 6.54275,1.56894 0.92506,0.11279 1.99202,-0.3634 2.17458,-1.35609 0.40986,-2.18638 0.31519,-4.43258 0.45516,-6.64495 0.31068,-7.81689 0.74605,-15.62876 1.02307,-23.44679 0.0292,-2.61328 0.18823,-5.23855 -0.0391,-7.84577 -0.0979,-0.9435 -0.34264,-2.15445 -1.3934,-2.46128 -0.63793,-0.20569 -1.32136,-0.25257 -1.98778,-0.26193 z"
         style="opacity:1;vector-effect:none;fill:#ffe6d5;fill-opacity:1;stroke:#000000;stroke-width:0.19015872;stroke-linecap:round;stroke-linejoin:miter;stroke-miterlimit:4;stroke-dasharray:none;stroke-dashoffset:0;stroke-opacity:1" />
      <path
         transform="scale(0.26458333)"
         inkscape:connector-curvature="0"
         id="path55"
         d="m 604.49492,573.94785 c -0.67635,-0.0612 -1.25016,0.48697 -1.25625,1.15903 -0.20911,1.78233 1.04354,3.29737 2.12831,4.56378 0.75715,0.91827 1.81335,1.68893 2.14884,2.87479 0.0759,0.77419 -0.86175,0.99336 -1.46393,1.04807 -2.14932,0.19202 -4.29906,-0.45699 -6.44856,-0.075 -3.03941,0.48424 -6.12004,1.73203 -8.18178,4.09235 -0.90658,1.04622 -1.31958,2.53449 -1.03641,3.88738 0.46805,0.70412 1.47594,0.50499 2.19285,0.48134 3.54704,-0.34061 7.0567,-1.00545 10.56622,-1.57759 0.60593,-0.0171 1.41099,-0.2067 1.8984,0.2668 0.22911,0.45971 -0.41155,0.77647 -0.65187,1.06303 -1.92378,1.53726 -4.58406,1.74521 -6.48442,3.34022 -0.88081,0.69874 -1.86165,1.77867 -1.50131,2.99184 0.4663,1.14047 1.78938,1.56556 2.89427,1.81247 1.87927,0.29884 3.82434,0.0789 5.57845,-0.66405 1.79087,-0.61179 3.26641,-1.99277 5.15564,-2.31249 0.64094,-0.16173 1.00913,0.58098 0.78944,1.10911 -0.29833,1.08924 -1.08637,2.03394 -2.05683,2.59513 -0.79133,0.28406 -1.68074,0.28631 -2.37372,0.83072 -1.52381,1.0323 -2.79897,2.60246 -3.16281,4.43571 -0.0543,0.65095 -0.0593,1.66445 0.7084,1.89316 1.10817,0.11919 2.18014,-0.39741 3.16344,-0.84966 1.39012,-0.72478 2.59215,-1.73667 3.83405,-2.67665 0.49672,-0.28757 1.22238,-0.65785 1.74533,-0.26019 0.41389,0.37948 0.19546,1.04179 0.011,1.48931 -0.67577,1.26246 -1.85742,2.23088 -2.24237,3.66483 -0.39124,0.87615 -0.40039,2.1483 0.5433,2.67402 1.00489,0.54894 2.20419,0.0848 3.1409,-0.39255 1.67166,-1.02223 2.92849,-2.59257 4.05916,-4.16403 1.52728,-2.35705 1.8429,-5.22716 2.40527,-7.91673 0.39328,-1.81032 0.55925,-3.68297 0.35723,-5.52751 -0.73014,-2.59228 -2.361,-4.79626 -3.59125,-7.16086 -1.11949,-2.13662 -2.36643,-4.27285 -2.85734,-6.6503 -0.10665,-1.73375 -1.49179,-2.99446 -2.87047,-3.85789 -2.08503,-1.27154 -4.50199,-1.96958 -6.9246,-2.18859 -0.0722,-0.002 -0.14435,-0.001 -0.21654,10e-4 z"
         style="opacity:1;vector-effect:none;fill:#ffe6d5;fill-opacity:1;stroke:#000000;stroke-width:0.19015872;stroke-linecap:round;stroke-linejoin:miter;stroke-miterlimit:4;stroke-dasharray:none;stroke-dashoffset:0;stroke-opacity:1" />
      <path
         transform="scale(0.26458333)"
         inkscape:connector-curvature="0"
         id="path57"
         d="m 574.53037,564.84865 c -3.93146,0.14505 -7.72065,2.0375 -10.39667,4.88797 -1.06197,1.14511 -1.86499,2.69523 -3.38492,3.2983 -1.42876,0.18965 -2.93741,-0.13017 -4.30263,0.46689 -3.22545,1.17431 -6.22401,2.96918 -8.85162,5.17174 -0.95309,0.84281 -1.9734,1.80802 -2.12135,3.14612 -0.45952,4.01681 0.2223,8.0538 1.01865,11.98411 0.57995,2.49644 1.15667,5.05555 2.42696,7.30653 0.32792,0.48207 0.762,1.18299 1.45297,0.96319 0.55998,0.0166 0.95045,-0.53512 0.78909,-1.06128 -0.33303,-1.50495 -1.08375,-2.89221 -1.29973,-4.42638 -0.14763,-0.98774 -0.2881,-2.2376 0.56212,-2.97149 0.59594,-0.53524 1.46051,-0.1614 1.86377,0.42385 1.63983,2.36988 3.36634,4.69488 5.33461,6.80601 0.63334,0.59108 1.34924,1.42653 2.30485,1.33069 0.6032,-0.17394 0.44215,-0.9884 0.39306,-1.4547 -0.51716,-3.14823 -2.86905,-5.71449 -3.0955,-8.92963 -0.0736,-0.57479 0.2292,-1.38418 0.91988,-1.31852 1.19306,0.2179 2.09126,1.1692 2.944,1.96173 1.15946,1.15092 2.09669,2.50533 2.82734,3.96162 0.9252,1.30933 2.50586,1.90473 3.91362,2.54266 1.64161,0.61675 3.38188,1.21924 5.15949,1.08766 0.52363,-0.11249 0.74593,-0.7005 0.57777,-1.17938 -0.42181,-1.79175 -1.70604,-3.21781 -2.81886,-4.62608 -2.15379,-2.61567 -4.75627,-4.837 -6.80802,-7.53749 -0.41783,-0.61731 -0.97977,-1.53896 -0.37064,-2.22519 0.36505,-0.56391 1.11162,-0.75623 1.69646,-0.40507 1.83939,0.96074 3.39293,2.39818 4.99661,3.70429 1.18039,0.9765 2.27453,2.05031 3.33592,3.14983 1.17638,0.95272 2.86906,1.44517 4.33073,0.93143 0.78977,-0.38391 0.49818,-1.39289 0.30906,-2.05022 -0.62726,-1.98602 -1.22874,-4.08175 -2.59947,-5.70177 -2.05323,-2.31904 -5.09645,-3.29867 -7.75199,-4.72434 -1.27638,-0.70323 -2.70962,-1.24306 -3.75571,-2.28028 -0.11323,-0.35157 0.28012,-0.67683 0.45337,-0.95734 2.06855,-2.34458 4.68617,-4.13919 7.3687,-5.70327 1.74302,-1.06529 3.87348,-1.71143 5.12781,-3.42057 0.43891,-0.58773 0.36972,-1.59655 -0.41342,-1.86012 -0.66883,-0.28817 -1.42032,-0.29491 -2.13631,-0.2915 z"
         style="opacity:1;vector-effect:none;fill:#ffe6d5;fill-opacity:1;stroke:#000000;stroke-width:0.19015872;stroke-linecap:round;stroke-linejoin:miter;stroke-miterlimit:4;stroke-dasharray:none;stroke-dashoffset:0;stroke-opacity:1" />
      <path
         transform="scale(0.26458333)"
         inkscape:connector-curvature="0"
         id="path59"
         d="m 578.94685,375.05516 c -1.82782,0.0918 -3.10341,1.6377 -4.07917,3.01969 -2.51418,3.74882 -3.98839,8.10937 -4.87269,12.50959 -0.16632,1.18737 -0.4908,2.44389 -0.14664,3.62622 0.39113,0.69035 1.33639,0.48327 1.99335,0.53517 2.46479,-0.0161 5.00346,-0.19892 7.29804,-1.16895 0.88415,-0.32076 0.842,-1.42613 1.03885,-2.18188 0.71338,-4.2115 1.10064,-8.48111 1.20146,-12.75074 -0.0449,-1.05162 0.10674,-2.39837 -0.84857,-3.11168 -0.45897,-0.32636 -1.02086,-0.5007 -1.58463,-0.47742 z"
         style="opacity:1;vector-effect:none;fill:#ffffff;fill-opacity:1;stroke:#000000;stroke-width:0.19015872;stroke-linecap:round;stroke-linejoin:miter;stroke-miterlimit:4;stroke-dasharray:none;stroke-dashoffset:0;stroke-opacity:1" />
      <path
         transform="scale(0.26458333)"
         inkscape:connector-curvature="0"
         id="path61"
         d="m 586.26785,374.89758 c -0.52506,-0.0483 -0.74432,0.4892 -0.77808,0.92493 -0.66928,4.18861 -0.89009,8.43323 -1.2972,12.65226 -0.0665,1.15209 -0.25526,2.31837 -0.23948,3.46444 0.41323,0.27356 0.99629,0.0868 1.46792,0.15484 1.90403,-0.0465 3.84927,0.14088 5.72055,-0.28789 1.18846,-0.29441 1.57973,-1.60555 1.81751,-2.65339 0.41628,-2.49597 0.20411,-5.04971 -0.0162,-7.55579 -0.2349,-1.63097 -0.29391,-3.35653 -1.05467,-4.85023 -0.70566,-1.19098 -2.23608,-1.34407 -3.46064,-1.61699 -0.71416,-0.11095 -1.43454,-0.24386 -2.15973,-0.23218 z"
         style="opacity:1;vector-effect:none;fill:#ffffff;fill-opacity:1;stroke:#000000;stroke-width:0.19015872;stroke-linecap:round;stroke-linejoin:miter;stroke-miterlimit:4;stroke-dasharray:none;stroke-dashoffset:0;stroke-opacity:1" />
      <path
         transform="scale(0.26458333)"
         inkscape:connector-curvature="0"
         id="path63"
         d="m 599.48436,378.80775 c -0.91671,0.0279 -2.17733,0.0913 -2.54347,1.11555 -0.46725,1.52697 -0.16451,3.15813 -0.0742,4.71952 0.27283,2.21859 0.33912,4.50106 1.05511,6.63583 0.3162,1.00302 1.24508,1.65222 2.24154,1.86586 1.78444,0.47883 3.67796,1.07278 5.5341,0.66856 0.59042,-0.17659 0.63661,-0.87617 0.43934,-1.36317 -0.95849,-3.35737 -1.10494,-6.88343 -2.05052,-10.24177 -0.42303,-1.4668 -1.4132,-3.03163 -3.04704,-3.26628 -0.51153,-0.10013 -1.03407,-0.13894 -1.55488,-0.1341 z"
         style="opacity:1;vector-effect:none;fill:#ffffff;fill-opacity:1;stroke:#000000;stroke-width:0.19015872;stroke-linecap:round;stroke-linejoin:miter;stroke-miterlimit:4;stroke-dasharray:none;stroke-dashoffset:0;stroke-opacity:1" />
      <path
         transform="scale(0.26458333)"
         inkscape:connector-curvature="0"
         id="path65"
         d="m 602.23863,396.98632 c -0.67847,-0.0335 -0.98733,0.68921 -0.9865,1.26548 -0.11881,1.93911 0.0439,3.93179 0.66648,5.7795 0.53515,1.27473 1.90809,2.14789 3.29828,2.01654 0.86068,-0.0601 1.87948,0.16679 2.6141,-0.39678 0.82503,-0.86825 0.49685,-2.16556 0.59412,-3.24211 -0.0146,-1.42772 0.1383,-3.03573 -0.71413,-4.27212 -0.4954,-0.56423 -1.32584,-0.29818 -1.9656,-0.51434 -1.17892,-0.14828 -2.31652,-0.60151 -3.50675,-0.63617 z"
         style="opacity:1;vector-effect:none;fill:#ffffff;fill-opacity:1;stroke:#000000;stroke-width:0.19015872;stroke-linecap:round;stroke-linejoin:miter;stroke-miterlimit:4;stroke-dasharray:none;stroke-dashoffset:0;stroke-opacity:1" />
      <path
         transform="scale(0.26458333)"
         inkscape:connector-curvature="0"
         id="path67"
         d="m 590.88241,394.14162 c -0.47522,-0.0137 -0.31838,0.65535 -0.44333,0.95432 -0.42393,2.93728 -0.86623,5.88089 -1.04737,8.84457 -0.0412,0.81464 0.12872,1.92091 1.07885,2.12553 1.91398,0.38828 3.85361,0.76761 5.81307,0.78699 0.65568,0.0273 1.45302,-0.0103 1.80081,-0.67168 0.40463,-0.88622 0.21976,-1.91904 0.26124,-2.86522 -0.10264,-2.15644 -0.1047,-4.33686 -0.50647,-6.4639 -0.13548,-0.93326 -0.9454,-1.57885 -1.83026,-1.76501 -1.67803,-0.43756 -3.39431,-0.82131 -5.12654,-0.9456 z"
         style="opacity:1;vector-effect:none;fill:#ffffff;fill-opacity:1;stroke:#000000;stroke-width:0.19015872;stroke-linecap:round;stroke-linejoin:miter;stroke-miterlimit:4;stroke-dasharray:none;stroke-dashoffset:0;stroke-opacity:1" />
      <path
         transform="scale(0.26458333)"
         inkscape:connector-curvature="0"
         id="path69"
         d="m 583.84839,395.86921 c -1.93169,0.0547 -4.09499,0.10013 -5.65828,1.39539 -0.81104,0.60821 -0.97426,1.67097 -0.88093,2.61739 0.12194,1.73955 1.03347,3.30712 1.96309,4.73648 1.0692,1.44498 2.77408,2.76808 4.67588,2.48796 0.74892,-0.0446 1.39498,-0.63377 1.43008,-1.40041 0.27799,-2.26538 0.49,-4.53541 0.86256,-6.78992 0.056,-0.89761 0.46893,-2.01889 -0.23017,-2.7714 -0.61788,-0.40194 -1.46709,-0.22462 -2.16223,-0.27549 z"
         style="opacity:1;vector-effect:none;fill:#ffffff;fill-opacity:1;stroke:#000000;stroke-width:0.19015872;stroke-linecap:round;stroke-linejoin:miter;stroke-miterlimit:4;stroke-dasharray:none;stroke-dashoffset:0;stroke-opacity:1" />
      <path
         transform="scale(0.26458333)"
         inkscape:connector-curvature="0"
         id="path71"
         d="m 572.25129,398.83879 c -0.70069,0.12929 -0.80391,1.01343 -0.92493,1.58497 -0.22311,1.90916 -0.0858,3.91811 0.64734,5.70924 0.62276,1.23944 2.12476,2.18827 3.52406,1.80621 0.8349,-0.28412 1.1009,-1.27447 0.91589,-2.0617 -0.41499,-2.18416 -1.46117,-4.22195 -2.76279,-6.00857 -0.3643,-0.41883 -0.78202,-1.02012 -1.39957,-1.03015 z"
         style="opacity:1;vector-effect:none;fill:#ffffff;fill-opacity:1;stroke:#000000;stroke-width:0.19015872;stroke-linecap:round;stroke-linejoin:miter;stroke-miterlimit:4;stroke-dasharray:none;stroke-dashoffset:0;stroke-opacity:1" />
      <path
         transform="scale(0.26458333)"
         inkscape:connector-curvature="0"
         id="path73"
         d="m 549.88611,463.26132 c -1.74662,0.18163 -3.41836,1.53377 -3.5011,3.37935 -0.36193,2.96151 -0.2294,6.07235 -1.68602,8.78109 -4.29001,9.13754 -12.0595,15.88605 -18.83526,23.13196 -6.94012,7.34463 -13.99268,14.61279 -20.37117,22.45919 -2.79289,3.44338 -3.39331,8.13599 -2.9264,12.41506 1.04928,2.7153 3.16668,4.85213 4.90253,7.14061 5.09816,6.03697 10.36904,12.00759 16.49017,17.03556 6.68912,4.88091 12.31558,10.99103 18.42392,16.53981 1.10997,0.88919 2.37418,2.34291 3.96466,1.74521 2.32397,-0.82541 5.15913,-1.85508 6.06718,-4.38985 0.56053,-2.18287 -0.62347,-4.35992 -1.58267,-6.25195 -2.98434,-4.83917 -6.65719,-9.20983 -9.89112,-13.88049 -2.24753,-3.22332 -4.84494,-6.19146 -7.86479,-8.71422 -3.68875,-3.37539 -8.17711,-5.9452 -11.23941,-9.95447 0.43847,-1.56641 1.78263,-2.72865 2.72916,-4.01816 6.49889,-7.62211 13.59092,-14.7741 19.36549,-22.98673 3.10999,-3.93739 6.58629,-7.66546 10.69461,-10.57773 0.77839,-0.4182 1.73975,-1.20028 2.65687,-0.83796 0.009,0.54056 -0.78095,0.94156 -1.06629,1.38501 -2.52946,2.73113 -5.65643,4.98762 -7.62714,8.19439 -0.75603,1.82474 -0.72112,3.876 -1.2991,5.76294 -2.28576,9.66818 -5.07568,19.24404 -6.38139,29.11611 -0.27771,3.0853 -1.34348,6.50742 0.35514,9.37774 2.421,3.8939 5.48519,7.34436 8.12296,11.09081 2.61338,3.39953 4.76868,7.73231 9.04476,9.30599 1.18604,0.36122 2.71145,0.71709 3.80686,-0.0351 0.95786,-1.63412 1.07478,-3.64154 1.44776,-5.47028 1.49102,-10.83922 2.57384,-21.73869 4.47278,-32.51777 2.04459,-11.7666 4.35506,-23.6083 9.03102,-34.65591 0.43024,-1.37329 1.23474,-2.7361 1.21366,-4.19825 -1.10904,-0.94764 -2.7598,-0.93858 -4.11922,-1.32078 -4.49362,-0.85964 -9.298,-1.60378 -13.03946,-4.43959 -1.94748,-1.65859 -3.78303,-3.72613 -4.07051,-6.36691 -0.7159,-3.70486 -0.23373,-7.61267 -1.48985,-11.21093 -0.91779,-1.92844 -2.55861,-3.46846 -4.30984,-4.64761 -0.45251,-0.25132 -0.96623,-0.41715 -1.48879,-0.38611 z"
         style="opacity:1;vector-effect:none;fill:#c87137;fill-opacity:1;stroke:#000000;stroke-width:0.38031745;stroke-linecap:round;stroke-linejoin:miter;stroke-miterlimit:4;stroke-dasharray:none;stroke-dashoffset:0;stroke-opacity:1" />
      <path
         transform="scale(0.26458333)"
         inkscape:connector-curvature="0"
         id="path75"
         d="m 539.12125,574.82637 c -0.38036,0.0417 -0.38412,0.55031 -0.4752,0.83653 -0.43758,2.40356 -0.28282,4.85979 -0.31545,7.28957 0.027,3.76088 0.15159,7.53011 0.60077,11.26661 0.26388,2.06801 0.76447,4.19615 2.09354,5.85953 0.60282,0.76352 1.25201,1.63229 2.22366,1.92505 0.62444,0.14991 1.08059,-0.53713 1.006,-1.10107 -0.0401,-1.62247 -0.5707,-3.18182 -0.79656,-4.77838 -0.72477,-4.26461 -1.22746,-8.57546 -1.41468,-12.89819 -0.054,-1.28174 -0.002,-2.56253 0.2135,-3.828 -0.007,-1.56309 -0.64272,-3.21549 -1.92616,-4.16544 -0.35265,-0.23909 -0.78244,-0.39262 -1.20942,-0.40621 z"
         style="opacity:1;vector-effect:none;fill:#c87137;fill-opacity:1;stroke:#000000;stroke-width:0.13446252;stroke-linecap:round;stroke-linejoin:miter;stroke-miterlimit:4;stroke-dasharray:none;stroke-dashoffset:0;stroke-opacity:1" />
      <path
         transform="scale(0.26458333)"
         inkscape:connector-curvature="0"
         id="path77"
         d="m 597.78143,453.98962 c -1.22349,0.0443 -2.47501,0.25748 -3.57758,0.80812 -0.64386,0.30672 -0.86762,1.06912 -0.74774,1.73037 0.22984,1.31071 0.57601,2.60284 0.69398,3.93075 0.0598,0.5956 -0.004,1.24831 0.40844,1.74234 1.00761,1.37696 2.65303,2.05755 4.15209,2.72931 0.81845,0.44055 1.73919,0.77875 2.41164,1.44363 0.15681,0.32946 -0.14063,0.68499 -0.21803,1.00286 -1.33585,3.03489 -2.97091,5.9316 -4.69957,8.76101 -1.07519,1.71566 -2.26238,3.53063 -4.15818,4.41423 -2.36052,1.1398 -5.07066,0.93429 -7.59036,0.57672 -3.21798,-0.5155 -6.38431,-1.32356 -9.49016,-2.30682 -2.72702,-0.89641 -5.51857,-2.12936 -7.35812,-4.4344 -1.04479,-1.34398 -1.94427,-2.82836 -2.52147,-4.43462 -0.44769,-1.28138 0.16135,-2.59448 0.6879,-3.74311 1.17555,-2.47713 2.54935,-4.87066 3.59838,-7.40922 0.19945,-0.36953 0.0389,-0.88533 -0.40062,-0.9709 -1.21326,-0.26369 -2.44492,0.20144 -3.55311,0.66005 -1.74876,0.76673 -3.37289,1.94103 -4.45424,3.53247 -1.02497,1.68557 -1.12972,3.7185 -1.32846,5.63058 -0.28063,3.22453 -0.31981,6.46956 -0.17686,9.70207 0.14087,2.01513 0.32878,4.11841 1.3092,5.92544 0.79276,1.32703 2.37187,1.80141 3.74887,2.26996 4.28839,1.36777 8.7517,2.28737 13.26301,2.36699 2.42453,0.0236 4.85584,0.0107 7.26289,-0.31717 3.68578,-0.45715 7.34474,-1.25064 10.83929,-2.51882 2.72553,-1.10156 5.37436,-2.38279 8.06844,-3.558 1.53597,-0.74 3.19248,-1.34788 4.47492,-2.50715 1.30137,-1.2251 1.61771,-3.10865 1.73738,-4.81172 0.23671,-3.96552 -1.05472,-7.85574 -2.81582,-11.3581 -1.18234,-2.25251 -2.50013,-4.4691 -4.21475,-6.36142 -1.36099,-1.50338 -3.26764,-2.60826 -5.35136,-2.49545 z"
         style="opacity:1;vector-effect:none;fill:#c87137;fill-opacity:1;stroke:#000000;stroke-width:0.13446252;stroke-linecap:round;stroke-linejoin:miter;stroke-miterlimit:4;stroke-dasharray:none;stroke-dashoffset:0;stroke-opacity:1" />
      <path
         transform="scale(0.26458333)"
         inkscape:connector-curvature="0"
         id="path79"
         d="m 624.92985,459.96663 c -3.22345,0.15898 -6.64381,1.24474 -8.69564,3.87864 -2.63236,3.27692 -3.24168,7.58527 -3.8288,11.61546 -0.25256,1.82572 -0.97626,3.65781 -2.51837,4.77457 -2.23436,1.69528 -4.64451,3.28193 -7.41612,3.87931 -3.23715,1.06086 -6.35024,2.48116 -9.42813,3.92832 -0.16229,0.99137 0.11633,2.06141 0.14516,3.07492 1.1401,12.64239 3.9323,25.05196 6.05993,37.54594 1.57284,8.94644 2.77114,17.95302 4.19756,26.92366 0.59741,4.11435 0.68889,8.29289 0.22987,12.4213 0.0312,0.89906 -0.32161,2.05742 0.37447,2.78162 0.94888,0.48194 2.09108,0.28371 3.07008,0.71744 3.71595,1.25808 6.66021,4.04062 9.10691,7.01473 0.77214,0.94434 1.947,1.61502 3.19958,1.38162 1.47735,-0.26103 2.89202,-0.93998 4.10543,-1.81228 1.41628,-1.169 1.01387,-3.1993 1.10438,-4.80987 0.0497,-7.51322 -0.0635,-15.0997 -1.73731,-22.46086 -1.44003,-6.86908 -3.84375,-13.52922 -4.73808,-20.50867 -0.48392,-3.12511 -0.67123,-6.37343 -1.90277,-9.32164 -1.28401,-2.66789 -2.58652,-5.35055 -3.28759,-8.24482 -1.22843,-4.62034 -1.963,-9.5261 -1.09694,-14.27831 0.54225,-3.08052 4.01966,-5.05913 6.96195,-4.25803 3.51244,0.84553 5.80331,3.90748 7.86695,6.64279 6.03379,8.22076 11.10308,17.10153 15.9552,26.05395 4.97012,9.24946 9.48835,18.74222 13.37863,28.49803 -4.86862,4.58117 -9.51234,9.47645 -14.98164,13.35152 -2.83335,1.73034 -5.67892,3.45748 -8.40356,5.36492 -3.87903,2.74713 -7.88735,5.30754 -11.7668,8.0523 -0.82877,0.54342 -1.52106,1.41381 -1.39217,2.4609 0.19025,2.37557 1.67296,4.40726 3.06209,6.2514 0.77896,0.8693 1.57108,2.01922 2.77862,2.24525 3.10104,-1.96751 5.97406,-4.28272 8.87994,-6.52569 10.91022,-8.80245 21.53706,-17.95387 32.00067,-27.2809 2.3961,-2.25219 4.99575,-4.32799 7.0856,-6.88098 1.34757,-1.71323 2.17843,-3.84358 2.12575,-6.04053 0.19027,-4.40081 -1.29463,-8.65757 -2.90206,-12.68691 -2.2249,-5.3925 -5.32364,-10.41349 -9.15369,-14.81413 -10.87571,-13.22475 -21.56581,-26.61016 -31.8938,-40.26631 -1.03416,-1.46702 -2.23962,-2.83375 -3.12096,-4.39893 -1.16024,-3.2705 -1.27723,-6.79488 -1.66592,-10.21551 -0.17994,-1.34974 -0.21274,-2.81167 -0.717,-4.05643 -0.34714,10e-4 -0.69431,-0.003 -1.04142,0.002 z"
         style="opacity:1;vector-effect:none;fill:#c87137;fill-opacity:1;stroke:#000000;stroke-width:0.26892504;stroke-linecap:round;stroke-linejoin:miter;stroke-miterlimit:4;stroke-dasharray:none;stroke-dashoffset:0;stroke-opacity:1" />
      <path
         transform="scale(0.26458333)"
         inkscape:connector-curvature="0"
         id="path81"
         d="m 586.59166,489.83445 c -1.85286,0.16279 -3.95719,0.5641 -5.248,2.01439 -1.39391,5.05476 -4.00257,9.72884 -5.30533,14.83655 -3.33922,12.30489 -5.53798,24.89927 -7.17543,37.53533 -0.78718,6.27043 -1.16138,12.58309 -1.4151,18.89501 1.49296,0.25289 3.16973,-0.2468 4.72721,-0.32204 2.18005,-0.12536 4.44982,-0.76705 6.60188,-0.14999 1.09823,0.60244 2.1969,1.52089 2.67704,2.70556 -0.002,1.03148 -1.18089,1.59531 -1.7622,2.32468 -2.48012,2.56512 -5.80665,3.94497 -8.77657,5.81046 -0.9708,0.58556 -2.12078,1.79938 -1.29956,2.96402 1.42992,1.92346 3.96121,2.48494 5.74854,4.0027 3.75197,2.9035 5.02023,7.88391 5.55162,12.36881 0.16869,0.96171 0.0327,2.33699 -1.16768,2.50206 -1.34695,0.38999 -2.81682,1.40528 -2.67496,2.9835 -0.69894,2.31258 -3.07484,3.75628 -5.29008,4.41524 -1.37621,0.42323 -3.03338,0.23213 -3.91643,-1.01989 -0.56,-0.75128 -1.58153,-1.26108 -2.44015,-0.64769 -2.26031,1.51022 -2.6401,4.56362 -4.61283,6.31728 -1.11497,0.54364 -1.9283,-0.84806 -2.63589,-1.49736 -1.07912,-1.0476 -2.00629,-2.78789 -3.67999,-2.86188 -1.4367,0.35486 -2.81568,1.6116 -3.05307,3.12124 -0.1479,1.64599 1.60751,2.49344 2.95845,2.80227 3.83751,1.44634 7.64163,3.05813 11.70033,3.80302 12.84102,2.69461 25.94853,3.76389 38.98414,5.06397 1.57968,-0.0712 3.28896,0.31379 4.78313,-0.304 0.73024,-0.44285 1.91958,-1.22096 1.25226,-2.21092 -1.498,-1.76805 -3.82979,-2.53648 -5.76096,-3.72663 -2.31674,-1.36382 -5.31845,-2.79612 -5.75422,-5.76199 -0.10865,-1.55161 -0.37334,-3.28033 -1.77716,-4.22114 -1.58861,-1.32101 -4.05944,-2.30591 -4.29976,-4.64169 0.0738,-1.21521 -1.06215,-2.36096 -2.31133,-2.09588 -1.48114,-0.18787 -3.53755,-0.0879 -4.28806,-1.68315 -0.86337,-1.92136 0.45694,-3.95305 1.56184,-5.47549 2.32129,-3.07241 5.78045,-4.94501 9.25939,-6.41989 1.21241,-0.69804 2.84134,-1.02354 3.64719,-2.25128 0.18408,-1.03724 -0.69639,-1.94999 -0.71448,-2.99602 -0.90276,-7.21182 -0.36968,-14.51205 -0.92291,-21.75301 -0.8135,-14.39272 -2.69584,-28.73012 -5.81906,-42.80697 -0.96151,-4.06218 -1.32814,-8.21438 -1.92091,-12.33706 -0.70162,-3.00409 -1.61536,-6.07042 -3.37651,-8.63686 -0.46777,-0.63824 -1.34114,-0.65343 -2.05439,-0.64526 z"
         style="opacity:1;vector-effect:none;fill:#c8b7b7;fill-opacity:1;stroke:#000000;stroke-width:0.38031745;stroke-linecap:round;stroke-linejoin:miter;stroke-miterlimit:4;stroke-dasharray:none;stroke-dashoffset:0;stroke-opacity:1" />
      <path
         transform="scale(0.26458333)"
         inkscape:connector-curvature="0"
         id="path83"
         d="m 575.28385,458.84233 c -1.24662,0.0555 -2.4959,0.51286 -3.44518,1.33009 -0.38612,0.31881 -0.60645,0.79233 -0.64917,1.28469 -0.22406,0.98114 -0.99955,1.70041 -1.66698,2.40303 -0.64227,0.63954 -1.33071,1.27775 -1.67645,2.13752 -0.83401,1.88567 -0.45139,4.10916 0.55119,5.85243 1.38898,2.47152 3.9273,4.21083 6.6951,4.75722 2.06214,0.44378 4.09957,0.98831 6.14218,1.5151 2.22834,0.501 4.50875,0.77445 6.79082,0.84585 0.99414,-0.0102 2.00072,0.0362 2.98447,-0.12967 0.71472,-0.14282 1.41289,-0.4439 1.91143,-0.99137 0.97441,-0.96007 1.63234,-2.18129 2.30084,-3.36066 1.00719,-1.90716 1.98559,-3.94152 2.03388,-6.14048 0.0328,-0.83105 -0.29427,-1.78978 -1.11634,-2.13223 -0.96507,-0.38369 -2.02478,-0.004 -2.90732,0.42638 -1.15593,0.56559 -2.29333,1.29774 -3.61475,1.3793 -1.14233,0.13713 -2.17024,-0.47038 -3.26474,-0.68778 -1.37605,-0.35328 -2.80175,-0.41041 -4.20662,-0.54663 -1.5499,-0.1852 -3.14387,-0.63458 -4.36567,-1.63847 -0.9131,-0.73334 -1.57087,-1.85875 -1.50971,-3.05611 -0.004,-0.96224 0.21567,-2.01587 -0.26693,-2.90645 -0.12992,-0.25932 -0.40523,-0.39379 -0.68978,-0.34208 z"
         style="opacity:1;vector-effect:none;fill:#c8b7b7;fill-opacity:1;stroke:#000000;stroke-width:0.09507936;stroke-linecap:round;stroke-linejoin:miter;stroke-miterlimit:4;stroke-dasharray:none;stroke-dashoffset:0;stroke-opacity:1" />
      <path
         transform="scale(0.26458333)"
         inkscape:connector-curvature="0"
         id="path85"
         d="m 698.33762,737.82881 c -1.32582,0.0573 -2.96182,-0.0876 -3.88617,1.07867 -1.16159,1.5619 -1.68673,3.48239 -2.54121,5.21165 -3.06468,6.84018 -7.3205,13.18409 -12.78198,18.34215 -3.35527,3.32141 -7.1427,6.19704 -11.16368,8.66265 -1.61982,0.9917 -3.40573,1.85336 -5.34806,1.85359 -3.1897,0.19422 -6.44201,-0.27447 -9.59478,0.40585 -1.42468,0.36392 -2.826,1.16179 -3.63791,2.41399 -0.32485,0.46966 -0.0385,1.13436 0.53047,1.2159 0.70264,0.10777 1.39993,0.20269 2.0507,0.50911 3.89466,1.60503 7.64201,3.5666 11.32826,5.60051 1.55264,0.87803 3.10186,1.79425 4.45228,2.96889 1.22683,0.88035 2.79028,1.06971 4.25854,0.91484 3.0399,-0.24986 5.90335,-1.43403 8.7029,-2.56726 5.17822,-2.23076 10.22291,-4.76765 15.17422,-7.46176 1.23166,-0.69916 2.49431,-1.38586 3.53492,-2.35648 0.53052,-0.38467 1.14487,0.2736 1.69229,-0.0858 1.3714,-0.79024 2.24719,-2.18757 3.15933,-3.43674 2.41692,-3.64841 4.40625,-7.60723 5.72223,-11.78643 1.22817,-4.22208 1.84575,-8.70463 1.2312,-13.08452 -0.26535,-1.61784 -0.69676,-3.34984 -1.9793,-4.4773 -1.81923,-1.82904 -4.30545,-2.81377 -6.75773,-3.46342 -1.35703,-0.32156 -2.75164,-0.47995 -4.14652,-0.45814 z"
         style="opacity:1;vector-effect:none;fill:#e9c6af;fill-opacity:1;stroke:#000000;stroke-width:0.19015872;stroke-linecap:round;stroke-linejoin:miter;stroke-miterlimit:4;stroke-dasharray:none;stroke-dashoffset:0;stroke-opacity:1" />
      <path
         transform="scale(0.26458333)"
         inkscape:connector-curvature="0"
         id="path87"
         d="m 643.45301,778.16812 c -3.25607,0.1688 -6.28975,1.63959 -9.01908,3.32764 -2.56502,1.68492 -5.08181,3.68625 -6.60419,6.40464 -0.85752,1.4463 -0.6859,3.23312 -0.2508,4.78571 0.12431,0.54463 0.51735,1.03924 1.10946,1.07433 3.50286,0.56368 7.06739,0.27169 10.59502,0.18989 5.93322,-0.25956 11.87811,-0.63383 17.74737,-1.5735 2.46091,-0.44366 4.95016,-1.05852 7.138,-2.30585 0.79392,-0.43541 1.35109,-1.33976 1.12651,-2.25771 -0.16522,-1.48731 -1.57926,-2.3384 -2.8013,-2.92576 -4.15197,-1.91321 -8.57282,-3.14879 -12.84883,-4.73836 -1.60025,-0.51709 -3.09735,-1.29326 -4.69867,-1.79876 -0.48604,-0.13165 -0.99003,-0.19348 -1.49349,-0.18227 z"
         style="opacity:1;vector-effect:none;fill:#e9c6af;fill-opacity:1;stroke:#000000;stroke-width:0.19015872;stroke-linecap:round;stroke-linejoin:miter;stroke-miterlimit:4;stroke-dasharray:none;stroke-dashoffset:0;stroke-opacity:1" />
      <path
         transform="scale(0.26458333)"
         inkscape:connector-curvature="0"
         id="path89"
         d="m 458.80406,657.32263 c -1.71067,-0.009 -3.22438,0.96169 -4.6168,1.84743 -3.52494,2.5131 -6.39659,5.93659 -8.33778,9.80098 -0.9615,1.87056 -1.51207,3.9336 -1.69089,6.01952 -0.2859,1.56347 -1.38001,2.81053 -2.30585,4.04625 -3.10841,3.67804 -6.68177,6.93413 -9.76981,10.63211 -5.16312,6.0502 -9.56489,12.71141 -13.5707,19.57082 -4.13426,7.36314 -5.87909,16.23718 -4.00814,24.54163 0.63468,2.68957 1.55846,5.36109 3.07339,7.68803 0.77469,1.22779 2.29798,1.60643 3.66465,1.5565 1.61524,-0.0371 3.42349,0.12643 4.78015,-0.93255 1.77055,-1.39249 2.92344,-3.38581 4.18095,-5.21727 2.82665,-4.4509 5.36616,-9.10623 7.34743,-13.99745 0.47876,-1.4082 1.26809,-2.94629 0.71833,-4.45099 -0.54788,-1.66806 -1.7449,-2.99192 -2.9219,-4.24141 -0.85354,-0.983 -1.55207,-2.16766 -1.81406,-3.457 -0.0491,-0.5278 -0.11212,-1.33424 0.49238,-1.5655 0.57808,-0.19508 1.06456,0.29131 1.12477,0.84232 0.0464,1.55762 1.27145,2.73694 2.31615,3.75868 1.16575,1.01552 2.56481,2.12216 4.20097,2.02309 1.10833,-0.39223 1.72315,-1.53988 2.15718,-2.56313 0.66228,-1.58489 0.38261,-3.49583 -0.69197,-4.83575 -1.68318,-2.42202 -4.13202,-4.36745 -5.17363,-7.19111 0.0887,-0.45063 0.52013,-0.81608 0.92006,-1.0192 0.83596,-0.18267 1.32015,0.7749 1.60867,1.40155 0.52471,1.34483 0.97511,2.877 2.26671,3.69895 1.29262,0.81505 2.92912,0.88219 4.40185,0.67083 0.64114,-0.14168 1.29452,-0.69504 1.16962,-1.41522 0.101,-1.20194 -0.7306,-2.19634 -1.30667,-3.17099 -1.11931,-1.59192 -2.55175,-3.26256 -2.45859,-5.32313 0.0226,-0.59888 0.40227,-1.22896 0.95658,-1.45331 0.91003,0.3564 1.27218,1.39379 1.74494,2.17491 0.7565,1.47391 1.4324,3.15793 2.86249,4.1128 0.71985,0.50596 1.75857,0.0261 1.94795,-0.80509 0.45258,-1.8661 0.31364,-3.81489 0.42315,-5.71902 0.0267,-3.29411 0.44076,-6.70446 2.07632,-9.61972 1.60134,-2.86785 4.24347,-4.97559 6.95509,-6.75932 2.75893,-1.9639 5.65717,-3.91539 7.66238,-6.69912 1.15953,-1.56934 1.73522,-3.59759 1.32409,-5.52923 -0.36532,-1.82461 -1.21019,-3.6308 -2.73096,-4.77092 -2.1008,-1.65766 -4.57652,-2.85725 -7.17458,-3.49312 -0.59351,-0.11527 -1.19949,-0.16638 -1.80392,-0.15685 z"
         style="opacity:1;vector-effect:none;fill:#afdde9;fill-opacity:1;stroke:#000000;stroke-width:0.19015872;stroke-linecap:round;stroke-linejoin:miter;stroke-miterlimit:4;stroke-dasharray:none;stroke-dashoffset:0;stroke-opacity:1" />
      <path
         transform="scale(0.26458333)"
         inkscape:connector-curvature="0"
         id="path91"
         d="m 688.03042,741.85273 c -1.72411,0.19777 -3.18169,1.29074 -4.53497,2.29538 -2.76417,2.19578 -5.12624,4.95663 -6.55871,8.20465 -1.04327,2.04453 -1.89731,4.21732 -3.27177,6.07131 -1.5271,1.89287 -3.92082,2.70267 -6.02645,3.75438 -1.50088,0.63664 -2.94062,1.4745 -4.51771,1.87433 -0.49233,0.16859 -0.68267,-0.38719 -0.63796,-0.77187 -0.0739,-0.73809 0.13909,-1.67873 -0.45394,-2.24815 -0.64471,-0.36968 -1.36355,0.18274 -1.96935,0.39342 -0.8731,0.34053 -1.80453,1.10638 -2.78487,0.74892 -0.3683,-0.23186 -0.52214,-0.7214 -0.22332,-1.07294 0.46108,-0.69801 1.63254,-0.69843 1.84812,-1.58237 -0.0251,-0.706 -0.88321,-0.93704 -1.42265,-1.16352 -2.26844,-0.67654 -4.6811,-0.44849 -6.99853,-0.82065 -2.25981,-0.23783 -4.44551,-0.94932 -6.69093,-1.29969 -2.59545,-0.40836 -5.05248,0.79273 -7.3657,1.79229 -4.66327,2.09906 -9.32126,4.80022 -12.3069,9.07664 -2.23359,3.05177 -2.86166,6.90823 -3.12014,10.59245 -0.1219,2.66408 -0.16622,5.41346 0.65112,7.98175 0.22488,0.58435 0.59128,1.4143 1.32913,1.39539 1.28346,-0.60738 2.3159,-1.63887 3.43205,-2.49964 2.21826,-1.90547 4.44931,-3.81798 6.93298,-5.37008 2.54776,-1.69597 5.33482,-2.98687 8.16211,-4.1416 1.99781,-0.91035 3.98867,-1.87309 5.79914,-3.11435 2.64943,-1.63799 5.84181,-1.87905 8.86692,-2.07363 3.35661,-0.22735 6.74286,-0.0632 10.08386,-0.50754 2.74404,-0.39955 4.88242,-2.32031 6.98919,-3.95855 5.06437,-4.12119 9.6753,-8.88269 13.22605,-14.38199 1.3777,-2.26471 2.76613,-4.69006 2.9859,-7.38644 0.0969,-0.70246 -0.1462,-1.61775 -0.95377,-1.75259 -0.15356,-0.0342 -0.31207,-0.0422 -0.4689,-0.0353 z"
         style="opacity:1;vector-effect:none;fill:#afdde9;fill-opacity:1;stroke:#000000;stroke-width:0.19015872;stroke-linecap:round;stroke-linejoin:miter;stroke-miterlimit:4;stroke-dasharray:none;stroke-dashoffset:0;stroke-opacity:1" />
      <path
         transform="scale(0.26458333)"
         inkscape:connector-curvature="0"
         id="path93"
         d="m 645.37184,743.12791 c -0.99535,-0.0472 -2.07796,0.24076 -2.66087,1.11016 -0.95254,1.46104 -0.99548,3.28461 -1.26332,4.95658 -0.0535,1.00192 -0.40762,2.16782 0.1942,3.0702 0.79788,0.83846 2.05107,0.94858 3.10215,1.28239 2.67068,0.63963 5.37429,1.34954 8.13685,1.36961 1.5413,-0.0999 3.16099,-0.23412 4.55003,-0.96302 0.99704,-0.62548 0.8992,-1.9639 0.89701,-2.98797 -0.0947,-1.85882 -0.15642,-3.73087 -0.40098,-5.57415 -1.11193,-0.35975 -2.31385,-0.51389 -3.46097,-0.78581 -2.601,-0.48619 -5.17199,-1.1884 -7.81141,-1.43642 -0.42677,-0.0312 -0.85475,-0.0476 -1.28269,-0.0416 z"
         style="opacity:1;vector-effect:none;fill:#ffe6d5;fill-opacity:1;stroke:#000000;stroke-width:0.19015872;stroke-linecap:round;stroke-linejoin:miter;stroke-miterlimit:4;stroke-dasharray:none;stroke-dashoffset:0;stroke-opacity:1" />
      <path
         transform="scale(0.26458333)"
         inkscape:connector-curvature="0"
         id="path95"
         d="m 694.15539,570.40317 c -6.17576,0.15527 -12.8413,0.72473 -17.89125,4.66813 -8.33909,4.71102 -14.64256,12.20804 -22.63839,17.43321 -7.58891,4.87465 -14.54024,10.72378 -22.55324,14.94012 -7.40931,4.02498 -14.16844,9.14998 -21.54453,13.20597 -3.94389,0.65753 -8.00343,-0.70903 -11.98686,-0.8724 -8.70696,-1.15215 -17.63036,-1.19608 -26.15614,-3.35953 -6.33302,-1.89206 -13.14283,-2.31435 -19.05932,-5.47931 -1.34391,-0.42581 -3.50042,-1.77991 -4.6556,-0.40072 -0.20966,5.27558 0.61536,10.65861 -0.92598,15.82503 -3.75633,13.84925 -9.35559,27.10864 -13.81592,40.73538 -5.26717,15.56341 -11.51143,30.77261 -16.62472,46.39135 -2.35316,7.94074 -6.09689,15.43325 -7.65673,23.60628 -0.66609,1.67867 -0.50404,4.03223 -1.96853,5.25295 -1.08067,-0.23409 -0.57198,-2.08638 -0.66787,-2.90384 0.14535,-4.96328 2.83912,-9.7468 1.92081,-14.73973 -1.40565,-2.80916 -4.30727,-4.58143 -6.37954,-6.88254 -8.09379,-7.96569 -14.99625,-17.03158 -22.99745,-25.09258 -3.45455,-3.39447 -6.57661,-7.28118 -10.49551,-10.12849 -1.79857,-0.65034 -2.98468,-3.74173 -5.23094,-2.56225 -3.5249,1.39329 -7.32547,4.07643 -7.37857,8.26975 -0.28251,3.5083 -0.39532,7.16871 0.12413,10.60022 8.24683,14.10359 15.82652,28.59523 23.43357,43.045 5.14666,6.43773 11.83322,11.46195 18.81305,15.7659 4.00698,2.67612 8.99077,5.8657 13.96404,3.83885 4.92205,-3.16858 7.77033,-8.57915 11.23918,-13.12808 4.18389,-5.72178 7.05928,-12.25924 11.46768,-17.82418 4.51522,-5.69247 8.74173,-11.63016 11.99855,-18.14804 5.36134,-10.16938 11.72805,-19.77138 16.93997,-30.02722 4.05896,-7.73186 8.37808,-15.32234 12.81953,-22.83338 2.5954,-6.23335 5.52201,-12.38896 7.71716,-18.75441 1.28923,-0.94309 1.05087,1.38515 1.00598,2.08987 -0.43657,5.04723 -4.04388,9.29841 -4.63682,14.30215 0.76579,1.19082 2.7214,0.36673 3.88338,0.62334 11.67531,-0.33108 23.44656,-0.77287 34.91983,-3.10837 5.91688,-1.79274 12.16172,-2.512 17.75908,-5.30224 12.83204,-5.55056 25.50823,-11.61606 37.02841,-19.60555 3.02831,-1.71371 5.83547,-4.32803 9.27789,-5.02529 0.98849,0.84852 -0.65195,1.98445 -1.41713,2.22832 -2.18504,1.24582 -5.71889,2.10151 -5.69011,5.23443 0.23078,7.40291 -1.97192,14.5257 -4.35808,21.44886 -3.62689,11.25555 -6.46793,22.94524 -12.3644,33.28791 -3.34743,7.91224 -6.84472,15.79474 -9.176,24.0863 -2.45646,8.16832 -5.85142,16.07909 -7.71761,24.41146 -0.15805,1.33537 -0.40959,3.38087 1.38861,3.66563 5.96739,1.65857 12.0794,3.31036 18.30519,3.4437 2.41119,-0.39195 3.13334,-3.36427 4.34602,-5.12242 3.24173,-6.70554 5.83898,-13.70023 9.44409,-20.24062 5.92115,-11.44813 13.05001,-22.40519 16.93049,-34.79043 1.28673,-2.99148 3.72066,-5.46032 4.08861,-8.83049 1.42563,-3.38518 2.33627,-6.92956 3.11326,-10.50149 2.80773,-8.93997 7.19982,-17.41933 8.56032,-26.78932 2.77363,-17.22114 3.87552,-35.1166 -0.157,-52.22943 -1.44965,-4.30177 -3.35084,-8.761 -6.71,-11.92356 -2.12322,-1.74617 -5.02089,-1.82204 -7.63459,-1.7942 z"
         style="opacity:1;vector-effect:none;fill:#ffd42a;fill-opacity:1;stroke:#000000;stroke-width:0.7606349;stroke-linecap:round;stroke-linejoin:miter;stroke-miterlimit:4;stroke-dasharray:none;stroke-dashoffset:0;stroke-opacity:1" />
      <path
         inkscape:connector-curvature="0"
         id="path34"
         d="m 165.25904,209.85116 c -1.5493,-1.90359 -1.9348,-2.93832 -1.6846,-4.52148 0.2678,-1.69374 1.2597,-3.12581 3.0654,-4.4257 1.1639,-0.83785 1.5255,-1.29585 1.996,-2.528 0.4137,-1.08354 0.5266,-1.78864 0.4032,-2.51885 -0.1378,-0.81566 0.033,-1.53073 0.8704,-3.6546 0.573,-1.45229 1.3704,-3.65256 1.7721,-4.88949 0.4016,-1.23692 0.821,-2.36802 0.932,-2.51354 0.1109,-0.14552 0.4094,-0.80036 0.6632,-1.45521 0.2538,-0.65484 0.6124,-1.36922 0.7969,-1.5875 0.1844,-0.21828 0.5358,-0.93265 0.7809,-1.5875 1.148,-3.0676 1.89,-5.28116 2.217,-6.61458 0.1963,-0.80037 0.4579,-1.58313 0.5813,-1.73947 0.1234,-0.15635 0.3037,-1.13861 0.4008,-2.18282 0.1487,-1.60027 0.1132,-1.89855 -0.226,-1.89855 -0.2214,0 -0.5507,0.1786 -0.7319,0.39688 -0.1812,0.21828 -0.427,0.39687 -0.5463,0.39687 -0.1193,0 -0.9858,0.48208 -1.9255,1.07129 -0.9397,0.5892 -2.5956,1.41286 -3.6798,1.83034 -1.0842,0.41749 -2.4258,1.00268 -2.9813,1.30042 -0.5556,0.29774 -1.5556,0.6204 -2.2224,0.71701 -0.6668,0.0966 -1.4479,0.29824 -1.7358,0.44804 -0.4826,0.25116 -2.8047,0.49599 -8.2079,0.86538 -3.2656,0.22326 -3.1392,0.15188 -4.1903,2.36531 -0.5194,1.09367 -1.2476,2.38602 -1.6181,2.87189 -0.3706,0.48587 -0.6738,0.99996 -0.6738,1.14243 0,0.14246 -0.8453,1.67904 -1.8784,3.4146 -1.033,1.73558 -2.2136,3.81692 -2.6235,4.62521 -0.4099,0.80829 -1.1422,1.95099 -1.6274,2.53933 -0.4852,0.58834 -1.1799,1.57378 -1.5437,2.18986 -0.3638,0.61609 -0.9055,1.43792 -1.2038,1.8263 -0.2983,0.38838 -1.0343,1.53958 -1.6357,2.55822 -1.2438,2.10706 -3.3064,4.36563 -3.9868,4.36563 -1.8164,0 -8.1574,-5.29109 -9.2712,-7.73618 -0.3142,-0.68964 -0.5712,-1.33681 -0.5712,-1.43816 0,-0.10135 -0.2189,-0.43007 -0.4864,-0.73049 -0.2675,-0.30042 -0.6501,-0.96293 -0.8503,-1.47226 -0.2001,-0.50932 -0.6361,-1.32961 -0.9688,-1.82286 -0.3327,-0.49325 -0.6049,-1.00163 -0.6049,-1.12973 0,-0.46138 -1.337,-2.3388 -1.657,-2.32682 -0.5894,0.0221 -3.0146,3.59726 -4.8631,7.16916 -0.5436,1.05056 -1.303,2.27553 -1.6875,2.72216 -0.3844,0.44663 -0.7749,1.02041 -0.8676,1.27507 -0.1952,0.536 -0.9281,0.59541 -1.8974,0.15379 -1.0587,-0.48237 -2.241,-2.6387 -2.428,-4.42838 -0.1704,-1.6298 0.3841,-3.93075 1.0879,-4.51486 0.197,-0.16355 0.7114,-0.98736 1.143,-1.83068 0.8293,-1.62022 4.6378,-6.51751 5.2517,-6.75311 0.199,-0.0763 0.3617,-0.45329 0.3617,-0.83767 0,-1.20161 1.5552,-3.74696 2.8851,-4.72202 1.8966,-1.3905 2.9191,-1.36058 4.6183,0.13511 1.3957,1.22851 1.606,2.25718 0.6987,3.41709 -1.1103,1.4195 -0.4983,2.5148 4.2148,7.54302 0.9561,1.01997 2.3389,2.50825 3.0729,3.30729 1.3991,1.52305 2.3726,2.37886 2.7058,2.37886 0.3799,0 0.9024,-1.1377 1.8058,-3.93219 0.5005,-1.54808 1.0175,-3.05281 1.1489,-3.34385 1.1637,-2.57861 1.5801,-3.71237 1.9924,-5.42495 0.2627,-1.09086 0.5793,-2.11337 0.7036,-2.27223 0.1243,-0.15887 0.5135,-1.11137 0.8647,-2.11667 0.3513,-1.0053 1.0804,-3.01845 1.6203,-4.47365 0.8981,-2.42103 0.9888,-2.918 1.0675,-5.849 l 0.086,-3.20317 -0.8021,-0.59305 c -1.259,-0.9308 -1.5986,-2.10494 -1.7519,-6.05758 l -0.137,-3.53197 -1.3404,-0.96595 c -1.865,-1.34408 -7.2927,-6.80825 -7.6817,-7.73333 -0.5314,-1.26389 -0.2177,-2.45399 1.0532,-3.99537 1.3147,-1.59452 4.1001,-4.59491 6.8955,-7.4279 2.4332,-2.46578 3.2671,-3.91763 3.2671,-5.68772 0,-1.17407 0.102,-1.42815 0.8141,-2.02728 1.0221,-0.86005 1.6506,-0.86644 2.3136,-0.0235 0.6164,0.78355 1.0128,0.84153 1.2232,0.17888 0.084,-0.26542 0.5174,-0.83097 0.9626,-1.25678 0.7207,-0.68924 0.9777,-0.76929 2.3428,-0.72958 l 1.5333,0.0446 0.2953,-0.98574 c 0.1625,-0.54216 0.3748,-2.19797 0.4719,-3.67957 0.1751,-2.67176 0.171,-2.6982 -0.5042,-3.22927 -0.3744,-0.29449 -0.7569,-0.88235 -0.85,-1.30635 -0.1657,-0.75453 -0.2125,-0.77372 -2.2031,-0.90346 -5.5404,-0.36109 -6.7847,-0.75829 -7.7985,-2.48945 -0.9525,-1.62621 0.3233,-4.2687 4.2318,-8.765556 2.2031,-2.53476 2.1387,-2.24186 1.5483,-7.040221 -2.0866,-16.957339 -2.3615,-20.274009 -2.2212,-26.796359 0.092,-4.29838 0.1762,-5.1267 0.5619,-5.55282 0.6151,-0.67973 0.5787,-0.78643 -0.3375,-0.98766 -0.4349,-0.0955 -0.8737,-0.30788 -0.975,-0.47192 -0.1014,-0.16403 -0.3302,-1.35855 -0.5083,-2.65448 -0.1782,-1.29594 -0.4536,-2.48585 -0.612,-2.64426 -0.2076,-0.20762 -0.6389,-0.16224 -1.5453,0.16262 -0.6915,0.24784 -1.5013,0.45003 -1.7996,0.44931 -0.2983,-7.1e-4 -0.6883,0.14454 -0.8665,0.32279 -0.2558,0.25575 -0.435,0.25486 -0.8499,-0.004 -0.6461,-0.40349 -1.7731,-0.16851 -2.544,0.5304 -0.6455,0.58521 -1.8118,0.54883 -1.8118,-0.0565 0,-0.25909 0.3161,-0.42696 0.9104,-0.48355 0.5007,-0.0477 1.2033,-0.31704 1.5612,-0.5986 0.5517,-0.43395 0.9054,-0.48583 2.3227,-0.34063 1.2685,0.12997 1.8184,0.0753 2.2791,-0.2266 0.334,-0.21884 0.9974,-0.48356 1.4741,-0.58828 1.5068,-0.33095 2.1042,0.591 2.3927,3.69287 l 0.1723,1.85209 1.7198,0.0621 c 1.0054,0.0363 2.3136,-0.11657 3.1492,-0.36805 1.1371,-0.34219 2.0264,-0.39392 4.3477,-0.25293 1.6051,0.0975 3.0454,0.27735 3.2008,0.3997 0.1554,0.12235 0.729,0.30291 1.2747,0.40124 0.9749,0.17567 1.2437,-0.017 0.7343,-0.52643 -0.1675,-0.16748 -0.017,-0.85444 0.4293,-1.95934 0.7842,-1.94152 1.0251,-3.40373 0.6522,-3.95887 -0.1536,-0.22866 -0.7491,-0.39837 -1.4851,-0.42322 -1.4648,-0.0495 -2.036,-0.54221 -2.5941,-2.23776 -0.3523,-1.07047 -0.4826,-1.19858 -1.2915,-1.26948 -0.4949,-0.0434 -1.2196,0.0871 -1.6106,0.28995 -0.8123,0.42142 -2.5989,0.24214 -2.7723,-0.27819 -0.077,-0.23119 0.251,-0.32978 1.0974,-0.32978 0.664,0 1.6704,-0.18529 2.2364,-0.41175 0.879,-0.35173 1.155,-0.36034 1.8933,-0.0591 0.722,0.29458 0.936,0.59114 1.2996,1.80081 l 0.4353,1.44816 1.3542,0.0791 c 1.2479,0.0728 1.4083,0.16074 2.0424,1.1188 0.7705,1.1643 0.8528,1.73954 0.3368,2.35319 -0.4036,0.47995 -0.9717,2.32775 -0.9717,3.16039 0,0.38114 0.1657,0.56461 0.51,0.56461 0.2805,0 0.7865,0.34348 1.1245,0.76329 0.699,0.86829 1.7796,1.46942 3.128,1.74016 0.5093,0.10227 1.5484,0.37562 2.3091,0.60747 1.3044,0.39754 1.4136,0.39396 1.9183,-0.0628 0.6063,-0.54872 0.7289,-2.06315 0.2044,-2.52422 -0.1819,-0.15989 -0.7177,-0.52002 -1.1906,-0.80029 -0.7259,-0.43018 -0.8606,-0.66481 -0.864,-1.50567 0,-0.54784 -0.091,-1.11514 -0.1984,-1.26066 -0.4663,-0.63461 -2.0016,-1.49406 -2.4566,-1.37509 -0.5157,0.13488 -1.1715,-0.39471 -0.8664,-0.69977 0.3269,-0.32696 1.9112,-0.17496 2.1233,0.20372 0.1163,0.20779 0.7176,0.74432 1.336,1.19228 0.9911,0.71782 1.1245,0.93676 1.1245,1.84501 0,0.89777 0.1196,1.1011 0.9282,1.57822 1.3246,0.7815 1.6632,1.65063 1.1018,2.82787 -0.5515,1.15651 -0.5625,1.7038 -0.034,1.7038 0.7633,0 3.0052,2.36964 3.194,3.37604 0.2517,1.34177 -0.8465,8.67838 -2.1482,14.351049 -0.3506,1.52797 -0.757,3.61156 -0.9031,4.63021 -0.1461,1.01864 -0.5637,3.16177 -0.9279,4.7625 -0.3642,1.60073 -0.7859,3.50573 -0.937,4.23333 -0.1511,0.7276 -0.5197,2.334951 -0.819,3.571881 -0.7082,2.92579 -1.0134,4.374136 -1.2129,5.754676 -0.1549,1.07175 -0.1308,1.12448 0.5131,1.12448 0.7639,0 2.3036,1.1714 2.3036,1.75262 0,0.21047 0.1885,0.6703 0.4189,1.02186 0.4545,0.69379 0.3259,1.53873 -0.3518,2.31095 -0.3214,0.36617 -0.8199,0.44896 -2.5484,0.42324 -2.8268,-0.0421 -4.8464,0.71463 -7.0228,2.63124 -0.8701,0.76617 -1.9283,1.46231 -2.3517,1.54698 l -0.7697,0.15394 -0.1789,2.54537 c -0.098,1.39996 -0.2516,2.83518 -0.3405,3.18939 -0.1555,0.61952 -0.1219,0.63765 0.8838,0.47683 1.0212,-0.16329 2.207,0.30531 2.207,0.87217 0,0.37138 1.3977,2.39 1.6548,2.39 0.1309,0 0.5655,-0.32743 0.9659,-0.72761 0.4003,-0.40018 1.2287,-0.86098 1.8408,-1.02399 1.0118,-0.26948 1.148,-0.24611 1.5006,0.25731 0.2133,0.30453 0.3879,0.87853 0.3879,1.27555 0,1.87753 0.5688,3.32513 2.0182,5.1364 0.8051,1.00607 1.5921,2.06734 1.7488,2.35838 0.1567,0.29104 0.98,1.28994 1.8296,2.21978 0.8496,0.92983 1.95,2.29905 2.4452,3.0427 0.4953,0.74366 1.434,1.91488 2.0859,2.60272 1.1235,1.18544 2.3077,3.23041 2.3077,3.98525 0,0.19076 0.113,0.45995 0.251,0.59819 0.1381,0.13825 0.3262,0.72761 0.4181,1.30969 0.1343,0.85127 0.046,1.2376 -0.4535,1.97459 -0.6926,1.0229 -5.5183,5.40153 -7.3594,6.67754 -0.6548,0.45387 -1.905,1.49982 -2.7781,2.32434 -0.8731,0.82451 -1.9447,1.72656 -2.3812,2.00456 -1.0739,0.68384 -1.395,1.12015 -1.7402,2.36481 -0.1614,0.58208 -0.4801,1.26742 -0.7082,1.52297 -1.0484,1.17457 0.6271,0.74205 3.031,-0.78241 0.757,-0.48007 1.4942,-0.87286 1.6382,-0.87286 0.1441,0 0.9534,-0.60887 1.7987,-1.35306 0.8452,-0.74418 1.8344,-1.48309 2.1982,-1.64202 0.7939,-0.34681 2.3368,-1.51411 3.9101,-2.95804 2.2183,-2.03609 5.455,-3.24738 7.603,-2.84531 1.763,0.33002 3.3478,2.44348 4.2656,5.68846 0.35,1.23755 0.3966,2.19696 0.2505,5.15938 -0.099,2.00152 -0.2174,3.93679 -0.2637,4.30059 -0.4359,3.42409 -0.9968,5.6751 -1.7792,7.13984 -0.2709,0.50717 -0.4926,1.06909 -0.4926,1.24872 0,0.17963 -0.2412,0.75611 -0.5361,1.28106 -0.2948,0.52495 -0.5096,1.09412 -0.4773,1.26482 0.077,0.4072 -0.379,1.7684 -1.8773,5.60202 -0.3794,0.97073 -1.3509,2.8911 -2.4093,4.7625 -0.5761,1.01865 -1.155,2.09021 -1.2863,2.38125 -2.3477,5.20201 -3.2033,7.19948 -3.2033,7.47832 0,0.18603 -0.2825,0.46696 -0.6278,0.62429 -0.5017,0.22859 -0.6598,0.55587 -0.7869,1.62913 -0.1853,1.56451 0.091,2.04222 1.1825,2.04222 0.8781,0 1.7113,-0.73412 2.2228,-1.95838 0.4892,-1.17085 3.215,-3.55773 4.294,-3.76015 0.4758,-0.0893 0.9303,-0.26785 1.01,-0.39688 0.3214,-0.52007 2.1424,-0.22475 3.3547,0.54408 1.3096,0.83052 2.0507,1.93683 2.0507,3.06108 0,0.78972 -0.7461,3.27095 -1.1337,3.77017 -0.1426,0.18364 -0.4518,0.71681 -0.6872,1.18483 -0.4544,0.90336 -2.8166,2.70444 -4.7936,3.65492 -0.6549,0.31483 -1.3693,0.67676 -1.5875,0.8043 -0.889,0.5194 -2.3097,1.13938 -3.3073,1.44326 -0.5821,0.17731 -1.4156,0.44673 -1.8521,0.59873 -2.4172,0.84161 -4.2058,1.17137 -6.7806,1.25015 l -2.8569,0.0874 z m 9.4057,-0.41954 c 1.1534,-0.37173 1.3907,-0.54993 1.3229,-0.99333 -0.082,-0.53634 -0.5939,-0.79727 -3.3898,-1.72756 -0.6549,-0.21789 -1.4542,-0.52213 -1.7764,-0.6761 -1.2946,-0.61871 -4.8382,1.59872 -4.8382,3.02754 0,0.35874 0.089,0.74225 0.1984,0.85224 0.3704,0.37328 6.9972,-0.004 8.4831,-0.48279 z m -8.3441,-2.39643 c 0.7419,-0.64897 2.0113,-1.44198 2.8208,-1.76226 0.8096,-0.32027 1.6506,-0.72771 1.8689,-0.90543 0.6506,-0.52968 1.5857,-0.71944 3.7051,-0.75187 1.9279,-0.0295 2.0594,-0.0727 3.3523,-1.10234 2.3833,-1.89799 4.3197,-4.5158 4.3197,-5.83985 0,-1.10832 -2.3894,0.56525 -3.1607,2.21381 -1.007,2.15243 -0.9103,2.0528 -2.8586,2.94442 -1.1034,0.50494 -1.1245,0.50512 -1.1245,0.009 0,-0.57741 -0.1051,-0.60912 -0.7951,-0.23986 -0.3321,0.17777 -0.5502,0.17716 -0.6608,-0.002 -0.091,-0.14695 0.031,-0.34243 0.2707,-0.43442 0.6347,-0.24354 -0.039,-0.61357 -1.1261,-0.61871 -0.4708,-0.002 -1.3638,-0.13507 -1.9844,-0.29519 -1.0014,-0.25841 -1.2935,-0.21671 -2.5984,0.37092 -1.8673,0.84086 -2.9749,1.77368 -3.5533,2.99275 -0.6521,1.37403 -0.6272,4.60038 0.035,4.60038 0.077,0 0.7472,-0.53097 1.489,-1.17994 z m 15.4301,-0.28174 c 1.6471,-0.80393 3.0677,-1.57978 3.1569,-1.72411 0.089,-0.14434 0.2652,-0.19872 0.3912,-0.12087 0.3553,0.21955 1.5245,-1.47658 2.2518,-3.26656 0.6829,-1.68062 0.8562,-3.71788 0.415,-4.87836 -0.306,-0.80485 -1.7713,-1.51301 -3.1306,-1.51301 -0.9805,0 -1.0724,0.0688 -1.5021,1.12448 -1.2317,3.02601 -3.2109,5.44769 -5.9577,7.28962 -1.2987,0.87085 -1.5894,0.95845 -2.9556,0.89074 -0.9103,-0.0451 -1.735,0.0621 -2.0654,0.26847 -0.6155,0.3844 -0.7214,0.74477 -0.2194,0.74673 0.4433,0.002 3.9339,1.79116 4.4223,2.26706 0.7291,0.71042 2.1054,0.42311 5.1936,-1.08419 z m -45.4911,-6.0128 c 0.7773,-0.82801 3.5299,-4.81807 3.5299,-5.11681 0,-0.23524 1.6048,-2.5231 2.6746,-3.81288 0.5431,-0.65484 1.4311,-2.08359 1.9734,-3.175 0.5422,-1.09141 1.3062,-2.46063 1.6978,-3.04271 0.7279,-1.08219 2.2461,-3.81194 3.996,-7.18491 0.5402,-1.04128 1.2918,-2.34884 1.6702,-2.90569 0.3784,-0.55684 0.688,-1.09518 0.688,-1.19629 0,-0.10111 0.4167,-1.08601 0.926,-2.18866 0.5093,-1.10265 0.926,-2.1829 0.926,-2.40057 0,-0.21766 0.1064,-0.39576 0.2363,-0.39576 0.5703,0 0.4818,0.91319 -0.2458,2.53489 -0.4313,0.96128 -0.7842,1.87196 -0.7842,2.02375 0,0.41416 9.5338,-0.28636 10.451,-0.76792 0.2911,-0.1528 1.0715,-0.34838 1.7344,-0.43463 1.0834,-0.14097 2.4108,-0.68557 7.1292,-2.92492 0.8003,-0.37985 1.8421,-0.92992 2.3151,-1.22236 0.4729,-0.29245 1.2022,-0.74008 1.6207,-0.99474 0.4184,-0.25466 1.4269,-0.91873 2.241,-1.4757 0.8142,-0.55697 1.6049,-0.9357 1.7571,-0.84162 0.4112,0.25414 0.079,0.62488 -0.9406,1.05105 -0.855,0.35728 -0.908,0.45334 -0.9094,1.64964 0,1.22262 -0.3131,2.80608 -0.7708,3.91611 -0.1201,0.29104 -0.5473,1.66026 -0.9495,3.04271 -0.8314,2.85785 -1.928,5.7635 -2.3965,6.35 -0.1744,0.21828 -0.4069,0.69453 -0.5168,1.05833 -0.1099,0.3638 -0.5407,1.40858 -0.9574,2.32173 -0.4166,0.91315 -0.7575,1.81258 -0.7575,1.99873 0,0.18615 -0.5524,1.87981 -1.2274,3.76368 -0.6751,1.88388 -1.2816,3.79662 -1.3479,4.25053 -0.1202,0.82405 -0.1176,0.82591 1.6905,1.24166 3.7709,0.86708 3.6559,0.87948 4.4133,-0.47574 0.3692,-0.66051 0.754,-1.46734 0.8551,-1.79295 0.3458,-1.11342 2.067,-4.55902 3.3708,-6.74799 1.2017,-2.01756 2.8289,-5.58322 2.8289,-6.19898 0,-0.14387 0.2381,-0.56431 0.5292,-0.93431 0.291,-0.37 0.5299,-0.86503 0.5308,-1.10006 8e-4,-0.23504 0.1646,-0.73969 0.3638,-1.12144 0.1992,-0.38176 0.3639,-0.97707 0.366,-1.32292 0,-0.34585 0.4774,-1.75991 1.0562,-3.14236 1.115,-2.66309 1.4725,-4.27307 1.9301,-8.69261 0.4017,-3.88034 -0.043,-8.9954 -0.9373,-10.78231 -0.8515,-1.70131 -1.2248,-2.14554 -2.0745,-2.46859 -0.8959,-0.3406 -4.5914,0.0957 -5.1821,0.61178 -0.2302,0.20121 -0.7786,0.54791 -1.2186,0.77043 -0.44,0.22253 -1.6885,1.20132 -2.7745,2.17508 -1.086,0.97376 -2.3928,2.00062 -2.9042,2.2819 -0.5113,0.28128 -1.525,0.98664 -2.2526,1.56746 -0.7276,0.58082 -2.3222,1.60442 -3.5435,2.27465 -1.2213,0.67024 -2.7497,1.59007 -3.3963,2.04406 -2.4504,1.72033 -2.3618,1.68694 -3.8469,1.4509 -0.7613,-0.12099 -2.9319,-0.3516 -4.8237,-0.51247 -1.8918,-0.16086 -3.5679,-0.3985 -3.7248,-0.52809 -0.1569,-0.12959 -1.0499,-0.34876 -1.9844,-0.48704 -0.9345,-0.13828 -2.1708,-0.49788 -2.7473,-0.79912 -1.5507,-0.81035 -1.7452,-0.73897 -1.5709,0.57678 0.2242,1.6929 -0.2584,4.03428 -1.4917,7.23768 -0.6104,1.58545 -1.7026,4.66857 -2.4272,6.85139 -0.7246,2.18281 -1.5369,4.445 -1.8052,5.02708 -0.2684,0.58208 -0.7812,1.9513 -1.1396,3.04271 -0.6693,2.03774 -1.1554,3.43544 -1.5186,4.36562 -0.1136,0.29105 -0.3493,1.00542 -0.5237,1.5875 -0.1744,0.58209 -0.4712,1.35599 -0.6595,1.7198 -0.1882,0.3638 -0.4875,1.40908 -0.6651,2.32284 -0.1775,0.91377 -0.4257,1.72499 -0.5515,1.80271 -0.4384,0.27097 -0.5641,-0.74797 -0.243,-1.9693 0.7217,-2.74448 0.7332,-2.69215 -0.9126,-4.14098 -0.8264,-0.72741 -1.9023,-1.83882 -2.3909,-2.4698 -1.3424,-1.73358 -6.5084,-7.18714 -6.8082,-7.18714 -0.1446,0 -0.4135,-0.20604 -0.5977,-0.45785 -0.3171,-0.43375 -0.3852,-0.43382 -1.2919,-0.001 -0.5311,0.25323 -1.0723,0.75923 -1.2158,1.13654 -0.3225,0.84821 -0.3392,3.36361 -0.025,3.70159 0.1287,0.13824 0.6508,1.02526 1.1603,1.97114 0.5094,0.94589 1.7733,3.26675 2.8087,5.15748 1.0354,1.89064 1.8825,3.56199 1.8825,3.71402 0,0.38608 2.415,2.72455 3.512,3.40063 0.4998,0.30804 1.4852,0.94702 2.1897,1.41997 0.856,0.57455 1.5978,0.85989 2.2357,0.85989 0.735,0 1.1403,-0.19779 1.7619,-0.85989 z m 37.3439,-1.16249 c 0.5289,-0.14167 0.5984,-0.30616 0.5292,-1.25316 l -0.08,-1.09008 -1.7969,-0.37272 c -2.0651,-0.42837 -2.2788,-0.32432 -2.4846,1.21022 -0.1386,1.0332 -0.1379,1.03405 1.0131,1.31544 1.4511,0.35477 2.0531,0.39541 2.8189,0.1903 z m -60.1436,-4.13922 c 1.1321,-1.59635 2.5171,-4.38553 2.5171,-5.06892 0,-0.32092 -0.2977,-0.86312 -0.6615,-1.20489 -0.6586,-0.61868 -0.9008,-1.5875 -0.3969,-1.5875 0.1455,0 0.2646,0.15784 0.2646,0.35075 0,0.54842 1.2475,1.58688 1.6984,1.41384 0.2214,-0.0849 0.4787,-0.45801 0.5718,-0.82905 0.1346,-0.5363 -0.028,-0.89341 -0.7948,-1.74183 -0.5303,-0.58698 -0.8936,-1.18147 -0.8073,-1.3211 0.2653,-0.42929 0.61,-0.28306 0.8049,0.34145 0.2257,0.72316 0.586,0.98279 1.3713,0.98813 0.7368,0.005 0.7612,-0.50746 0.066,-1.39106 -0.5718,-0.72694 -0.6818,-1.38974 -0.2726,-1.64265 0.1411,-0.0872 0.4327,0.26295 0.648,0.77814 0.2152,0.51519 0.576,0.93671 0.8017,0.93671 0.3272,0 0.4104,-0.33635 0.4104,-1.65777 0,-2.10898 0.5808,-3.24015 2.224,-4.33126 2.4836,-1.64923 3.0351,-2.64292 2.2651,-4.08167 -0.3933,-0.73495 -2.2422,-1.61372 -2.9968,-1.42434 -1.5924,0.39966 -3.5878,2.93282 -3.6031,4.57422 0,0.40377 -0.5894,1.20341 -1.6801,2.29407 -1.8486,1.84862 -3.3316,3.81035 -4.9872,6.59724 -1.6279,2.74034 -1.8484,5.94716 -0.5786,8.41441 0.3089,0.60021 0.547,0.72584 1.3599,0.71756 0.8515,-0.009 1.0927,-0.16148 1.7756,-1.12448 z m 47.9931,-32.17745 c 0.4887,-0.30949 0.2721,-0.58726 -0.938,-1.20305 -1.5024,-0.76457 -1.9399,-1.20897 -1.9418,-1.97234 0,-0.48484 -0.2344,-0.81905 -0.7938,-1.13732 -0.4748,-0.27021 -0.792,-0.66756 -0.792,-0.99218 0,-0.4265 -0.1703,-0.54148 -0.8021,-0.54148 -1.9067,0 -0.9856,-2.34738 1.3308,-3.3913 1.7916,-0.80736 1.6989,-0.72341 1.4273,-1.29364 -0.1243,-0.26094 -0.2283,-2.02224 -0.2311,-3.91401 -0.01,-3.63639 -0.6349,-9.08837 -1.4816,-12.8323 -0.2797,-1.23692 -0.5085,-2.52829 -0.5083,-2.86969 8e-4,-1.26215 -0.8129,-3.48045 -1.2752,-3.4767 -0.8515,0.007 -1.6348,0.3251 -1.6348,0.66405 0,0.18774 -0.3502,1.12178 -0.7782,2.07565 -1.0196,2.27253 -2.5361,10.30244 -2.7465,14.54228 l -0.1028,2.07205 1.4908,-0.17302 c 1.2636,-0.14666 1.5598,-0.0967 1.944,0.32779 0.4313,0.47661 0.4181,0.53353 -0.2724,1.1777 -0.399,0.37228 -1.172,0.8835 -1.7177,1.13603 -1.2534,0.58001 -1.2571,1.06267 -0.013,1.65355 1.1326,0.53785 1.8026,1.57513 2.0639,3.19498 0.1641,1.01771 0.1236,1.15823 -0.3712,1.28763 -0.3055,0.0799 -0.5555,0.33035 -0.5555,0.55658 0,1.02007 -2.0187,1.91512 -2.5135,1.11446 -0.3205,-0.51854 -0.8347,-0.25065 -1.2696,0.66146 -0.5312,1.11398 -0.7673,1.14683 -1.5046,0.20944 -0.4519,-0.57447 -0.6525,-0.66068 -1.0114,-0.43466 -0.6908,0.43501 -0.6907,1.0832 2e-4,1.27911 0.3357,0.0952 0.9676,0.33397 1.4042,0.53064 1.1544,0.52005 4.5154,1.12233 8.5989,1.54088 4.6737,0.47904 4.5726,0.47485 4.9949,0.20741 z m 1.5343,-1.94376 c 0.7723,-0.85783 0.8618,-1.06541 1.1632,-2.69572 0.2635,-1.42551 0.2435,-1.5176 -0.6676,-3.07219 -0.5166,-0.88145 -0.9393,-1.83163 -0.9393,-2.11152 0,-0.60477 -0.8904,-1.24157 -2.0643,-1.47636 -0.7204,-0.14407 -0.8461,-0.0925 -0.8461,0.34691 0,0.28386 0.294,0.7923 0.6533,1.12986 0.862,0.80983 0.5876,1.16295 -0.7601,0.97822 -1.3802,-0.18918 -3.1531,0.69745 -3.2888,1.64469 -0.083,0.58221 -0.024,0.60856 1.0584,0.47295 0.6306,-0.079 1.5487,-0.22656 2.0402,-0.32796 1.1972,-0.247 1.0159,0.39144 -0.2304,0.81105 -1.1099,0.3737 -1.6332,1.09397 -1.0601,1.45928 0.6329,0.40348 1.6516,0.30069 2.5701,-0.25933 0.5245,-0.31982 0.9134,-0.41637 1.015,-0.252 0.1896,0.30678 -0.3402,1.03701 -0.7524,1.03701 -0.4771,0 -1.2452,0.85236 -1.2452,1.38176 0,0.40183 0.1225,0.46883 0.5953,0.32546 0.3274,-0.0993 0.8507,-0.41393 1.1627,-0.69919 0.6994,-0.63932 1.1548,-0.15403 0.5169,0.55083 -0.2326,0.25695 -0.4228,0.66617 -0.4228,0.90937 0,0.63665 0.8709,0.54786 1.502,-0.15312 z m -15.2249,-3.56851 c -0.709,-1.38982 -0.3577,-2.05202 0.6075,-1.14521 0.369,0.34663 0.7393,0.84581 0.8229,1.10931 0.1259,0.39645 1.5244,1.01745 2.3045,1.02324 0.587,0.004 0.027,-1.02152 -1.2615,-2.30966 -1.1513,-1.15133 -1.3964,-1.53624 -1.1599,-1.82125 0.2471,-0.29776 0.4737,-0.22375 1.2869,0.42029 0.5428,0.42993 1.1389,0.96478 1.3246,1.18856 0.3798,0.45763 1.3312,0.55325 1.3312,0.13379 0,-0.15019 -0.1693,-0.67822 -0.3762,-1.1734 -0.2886,-0.69079 -0.7138,-1.05479 -1.8272,-1.56405 -0.7981,-0.36504 -1.5141,-0.76581 -1.5913,-0.8906 -0.1743,-0.28216 1.3155,-1.49077 2.5823,-2.09488 1.1017,-0.52537 1.2524,-1.14774 0.2779,-1.14774 -1.0679,0 -2.3798,0.66838 -2.9878,1.52224 -0.4173,0.58605 -0.7197,0.75809 -1.1785,0.67038 -0.758,-0.1449 -3.2811,1.35674 -3.5143,2.09156 -0.3759,1.18434 0.5167,5.50541 1.1372,5.50541 0.2699,0 0.3306,-0.14319 0.1962,-0.46302 -0.395,-0.93962 -0.4321,-1.59713 -0.1018,-1.80131 0.2125,-0.1313 0.4444,-0.0287 0.6203,0.27441 0.1545,0.26624 0.6381,0.90239 1.0747,1.41366 0.9767,1.14383 1.2228,0.60774 0.4323,-0.94173 z m -3.8484,0.79038 c -0.3468,-1.48074 -0.6452,-4.4504 -0.5055,-5.03052 0.1449,-0.60154 -0.2877,-1.38562 -0.7644,-1.38562 -0.1542,0 -0.2201,1.13393 -0.1661,2.85712 0.068,2.17851 0.201,3.02688 0.5587,3.57187 0.6178,0.94125 1.0992,0.9342 0.8773,-0.0129 z m 23.4532,-3.04812 c 2.7912,-2.16858 9.8501,-8.28107 10.6203,-9.19636 0.5094,-0.60539 0.6951,-1.12258 0.6935,-1.93103 0,-1.7696 -1.2766,-4.73371 -2.833,-6.59638 -2.8996,-3.4702 -7.8638,-9.75956 -9.5441,-12.09187 -0.1875,-0.26017 -0.3961,-1.22252 -0.4636,-2.13855 -0.067,-0.91603 -0.1755,-1.71834 -0.2401,-1.7829 -0.064,-0.0646 -0.5683,-0.0108 -1.1194,0.11957 -1.2932,0.30584 -2.0803,1.4551 -2.3221,3.3905 -0.1628,1.303 -0.2911,1.53973 -1.1512,2.12417 -0.5324,0.36176 -1.1038,0.65774 -1.2698,0.65774 -0.166,0 -0.8687,0.25074 -1.5615,0.55721 l -1.2596,0.5572 0.1666,1.7579 c 0.092,0.96685 0.5085,3.54384 0.9265,5.72665 0.418,2.18281 0.9004,4.98078 1.072,6.21771 0.1715,1.23693 0.4408,3.0032 0.5982,3.92505 0.1575,0.92186 0.217,2.26131 0.1323,2.97657 -0.1376,1.16129 -0.099,1.30046 0.3562,1.30046 0.6912,0 1.9678,0.80539 2.6486,1.67091 0.6244,0.79382 0.8927,0.84885 1.8289,0.37507 0.6315,-0.31956 0.6455,-0.39452 0.5811,-3.10495 -0.062,-2.59109 -0.2932,-3.95872 -1.2328,-7.2754 -0.2061,-0.72761 -0.4522,-2.03729 -0.547,-2.91042 -0.095,-0.87312 -0.3163,-1.82562 -0.4923,-2.11666 -1.1503,-1.90186 -1.6142,-5.59167 -0.8141,-6.47569 0.7929,-0.87622 2.0483,-0.70867 3.025,0.40372 2.083,2.37244 5.9421,9.19758 7.9213,14.00947 l 0.5442,1.32291 -1.7317,1.65942 c -0.9524,0.91267 -2.0903,1.84486 -2.5286,2.07153 -0.4383,0.22667 -1.4692,0.89003 -2.2908,1.47414 -0.8216,0.58411 -1.8895,1.3059 -2.373,1.60399 -0.7421,0.45748 -0.8525,0.64955 -0.708,1.23207 0.1619,0.65303 1.1061,1.887 1.4348,1.87532 0.084,-0.003 0.9537,-0.62806 1.9332,-1.38907 z m -22.0084,-3.50711 c 1.1882,-0.61444 1.0523,-1.59063 -0.5085,-3.65279 -0.7091,-0.93679 -1.672,-2.25966 -2.1399,-2.93972 -0.4679,-0.68006 -1.7401,-1.8942 -2.8271,-2.69807 -1.0924,-0.80783 -1.94,-1.62502 -1.895,-1.82695 0.045,-0.20094 1.1001,-1.47111 2.3452,-2.8226 1.2451,-1.35148 2.6525,-3.0267 3.1276,-3.7227 1.1647,-1.70653 3.2096,-3.62933 3.8598,-3.62933 0.4047,0 0.2035,0.28498 -0.8553,1.21114 -0.8138,0.71196 -1.3845,1.43166 -1.3845,1.74616 0,0.29426 -0.3089,1.68401 -0.6865,3.08833 -0.7219,2.68513 -1.1129,4.63974 -1.3418,6.70848 -0.1301,1.17509 -0.066,1.33573 1.1437,2.87114 0.7048,0.89453 1.602,2.11789 1.9938,2.71857 0.6771,1.03825 1.781,1.65157 2.4965,1.38706 0.1664,-0.0615 0.4311,-1.31937 0.5983,-2.843 0.7821,-7.12859 1.8678,-12.68351 3.0383,-15.54444 0.3824,-0.93459 0.6952,-1.78733 0.6952,-1.89497 0,-0.10764 -0.506,-0.27569 -1.1245,-0.37344 -2.0427,-0.32286 -3.0734,-0.72895 -3.8151,-1.50309 -0.6247,-0.65201 -0.7478,-1.03301 -0.8355,-2.5858 -0.089,-1.57699 -0.2019,-1.91594 -0.8412,-2.52839 -0.6223,-0.59624 -0.8255,-0.66055 -1.2943,-0.40966 -0.4411,0.2361 -0.556,0.54879 -0.556,1.51297 0,1.53092 -1.3299,3.60484 -4.0664,6.34138 -1.8863,1.88632 -4.946,5.19012 -6.5043,7.0232 -0.5853,0.68854 -0.871,1.34667 -0.9785,2.25389 -0.1416,1.19575 -0.082,1.37001 0.8968,2.60781 1.7538,2.21882 3.9493,4.48393 5.1362,5.29913 0.6189,0.4251 1.9774,1.63611 3.019,2.69113 1.0415,1.05503 2.0354,1.91823 2.2086,1.91823 0.1731,0 0.6661,-0.18165 1.0954,-0.40367 z m 21.9111,-0.53648 c 0.2923,-0.37157 1.0476,-0.93711 1.6785,-1.25677 1.991,-1.00882 3.3746,-2.32768 3.38,-3.22189 0,-0.68776 -1.4524,-4.95399 -2.1525,-6.30486 -1.7767,-3.42779 -3.1395,-5.57511 -4.8558,-7.65118 -0.7965,-0.96351 -2.079,-1.6625 -2.5341,-1.38122 -0.3805,0.23517 -0.2779,2.74957 0.1776,4.3519 0.5008,1.76185 0.9624,3.6654 1.5719,6.4823 0.2519,1.16416 0.6755,2.77151 0.9413,3.57187 0.2658,0.80037 0.5039,2.16958 0.529,3.04271 0.057,1.96022 0.2416,3.04271 0.5204,3.04271 0.1168,0 0.4515,-0.30401 0.7437,-0.67557 z m -25.0992,-9.02462 c 0,-0.42993 0.2211,-1.23741 1.5018,-5.484 0.3462,-1.14802 0.5843,-2.13253 0.529,-2.1878 -0.055,-0.0553 -0.5646,0.39569 -1.1318,1.00215 -0.5672,0.60646 -1.2796,1.36844 -1.5831,1.69329 -1.3533,1.44858 -2.4909,2.99149 -2.4909,3.37836 0,0.49053 2.0322,2.00865 2.712,2.02597 0.26,0.007 0.463,-0.18104 0.463,-0.42797 z m 13.5238,-13.58361 c 0.7838,-0.14578 1.7823,-0.42934 2.2189,-0.63014 0.4366,-0.20079 1.3531,-0.61271 2.0366,-0.91538 1.0429,-0.46176 1.2699,-0.69415 1.4106,-1.4444 0.2186,-1.16489 -0.2012,-2.67082 -1.1703,-4.19894 -0.8335,-1.31442 -1.5178,-1.69021 -2.5883,-1.42153 -0.535,0.13428 -0.6385,0.28578 -0.5137,0.7515 0.086,0.32082 0.1581,0.79007 0.16,1.04278 0,0.27322 0.379,0.61632 0.9297,0.8464 0.5093,0.21281 0.926,0.45727 0.926,0.54325 0,0.28 -1.1145,2.34941 -1.6699,3.10062 -0.7482,1.01192 -1.8111,1.14074 -4.2524,0.51535 -2.1623,-0.55395 -2.8768,-1.01001 -3.5147,-2.24345 -0.358,-0.6923 -0.3361,-0.84558 0.2917,-2.04627 0.3733,-0.71386 0.6787,-1.35964 0.6787,-1.43508 0,-0.37009 -1.1111,-0.0664 -1.7417,0.47601 -0.6266,0.53897 -0.7278,0.85111 -0.8362,2.57968 -0.068,1.08159 -0.014,2.38324 0.1188,2.89256 0.2222,0.84926 0.3725,0.96268 1.8137,1.36789 1.8391,0.51711 3.7131,0.58913 5.7025,0.21915 z m 1.5668,-2.9761 c 1.155,-1.87118 0.9043,-3.06963 -0.475,-2.27083 -0.4712,0.2729 -0.9102,0.34515 -1.2541,0.20641 -0.2911,-0.11742 -0.8269,-0.22361 -1.1907,-0.23599 -1.218,-0.0414 -1.9934,-0.61832 -1.8993,-1.41303 0.047,-0.39508 -0.033,-0.71833 -0.1768,-0.71833 -0.5259,0 -1.0989,0.329 -1.0989,0.63096 0,0.17038 -0.2381,0.51366 -0.5291,0.76286 -1.1042,0.9454 -0.2075,2.88349 1.4985,3.23891 0.4128,0.086 1.1076,0.25726 1.5442,0.38062 0.4365,0.12336 1.3015,0.23645 1.9221,0.25131 1.0007,0.0239 1.1884,-0.0703 1.6591,-0.83289 z m -1.0398,-3.83646 c 0.015,-0.5457 0.09,-2.30187 0.1662,-3.9026 0.2904,-6.1128 0.2935,-6.07492 -0.4992,-6.16667 -1.1029,-0.12764 -1.5448,0.7562 -1.5585,3.11669 -0.01,1.0954 -0.1383,2.52743 -0.2932,3.18227 -0.1549,0.65484 -0.3386,1.86917 -0.4082,2.6985 l -0.1265,1.50788 0.8828,0.2542 c 1.622,0.46709 1.806,0.39792 1.8366,-0.69027 z m 4.4422,-11.12113 c 2.4201,-1.93365 4.4845,-2.7141 7.2647,-2.74647 l 2.0236,-0.0236 v -1.2307 c 0,-1.66124 -0.5515,-2.40679 -1.7802,-2.40679 -1.1663,0 -1.924,-0.63035 -1.924,-1.60064 0,-0.39868 0.2406,-1.54109 0.5346,-2.53868 1.1586,-3.931056 1.3935,-4.882126 2.1142,-8.560677 0.2708,-1.38245 0.6759,-3.22792 0.9002,-4.10105 0.2243,-0.87312 0.5361,-2.51701 0.693,-3.65308 0.1569,-1.13607 0.5204,-2.98154 0.8077,-4.10104 0.2873,-1.1195 0.7004,-3.22609 0.9179,-4.681289 0.2176,-1.45521 0.5095,-3.30068 0.6488,-4.10105 0.1393,-0.80036 0.3272,-2.64583 0.4177,-4.10104 l 0.1646,-2.64583 -1.0234,-0.98494 c -0.7689,-0.74003 -1.6946,-1.21587 -3.7229,-1.9137 -1.4848,-0.51083 -3.1693,-1.00389 -3.7434,-1.0957 -0.9471,-0.15145 -1.118,-0.0844 -1.8431,0.72308 -0.6098,0.67897 -0.8733,0.81705 -1.1114,0.58233 -0.3683,-0.36304 -0.1183,-0.88295 0.4246,-0.88295 0.2097,0 0.3813,-0.22029 0.3813,-0.48953 0,-0.40766 -0.5863,-0.63587 -3.5057,-1.36457 -2.9746,-0.74246 -3.9222,-0.86766 -6.2544,-0.82633 -1.5118,0.0268 -2.8512,0.11209 -2.9766,0.18956 -0.4139,0.25581 -0.2369,1.1445 0.2834,1.42295 0.7409,0.39655 0.8992,1.18953 0.4216,2.11303 -0.5825,1.12639 -0.8203,1.00645 -0.7117,-0.35897 0.072,-0.91119 -0.028,-1.28696 -0.4611,-1.71979 -0.6284,-0.62844 -1.9273,-0.73361 -2.3765,-0.19242 -0.8004,0.96439 -0.9916,10.64878 -0.3247,16.439619 0.1676,1.4552 0.4804,4.25317 0.6951,6.2177 0.2146,1.96454 0.6434,5.53641 0.9527,7.93751 0.3094,2.40109 0.618,4.91183 0.686,5.579411 l 0.1234,1.21379 -2.1063,2.0935 c -1.1584,1.151426 -2.3639,2.569746 -2.6787,3.151836 -0.3148,0.58208 -0.8102,1.43379 -1.1008,1.89269 -0.2906,0.4589 -0.599,1.43118 -0.6854,2.16062 -0.1401,1.1832 -0.083,1.39999 0.5266,2.00991 0.5387,0.53876 0.9439,0.68365 1.9117,0.68365 0.6754,0 1.8886,0.19203 2.696,0.42674 1.0231,0.29742 1.9266,0.37484 2.9814,0.2555 1.6424,-0.18581 1.5675,-0.24556 2.2136,1.76516 0.2095,0.65203 0.9841,0.57552 2.1443,-0.21179 1.2052,-0.81791 1.8294,-0.75429 1.9397,0.19773 0.074,0.63818 0.3889,0.8817 1.2616,0.97555 0.157,0.0169 1.1471,-0.6578 2.2003,-1.49929 z m -9.7025,-2.60625 c -0.5298,-0.53184 -0.8593,-1.24904 -1.1024,-2.39962 -0.3248,-1.53724 -0.3071,-1.75336 0.2798,-3.41593 0.4027,-1.14066 1.0336,-2.2275 1.7655,-3.041606 l 1.139,-1.26675 1.5103,0.0973 c 1.9536,0.12583 2.9392,0.37296 3.7569,0.94202 0.3638,0.25317 1.1079,0.64645 1.6536,0.873946 0.9738,0.40597 0.9922,0.44028 0.9922,1.84909 0,0.78949 0.1681,1.91177 0.3735,2.49395 0.3451,0.97824 0.5167,2.09455 0.4483,2.91718 -0.049,0.59338 -1.3967,0.90106 -4.9228,1.12417 -1.8918,0.1197 -3.8218,0.30025 -4.2889,0.40123 -0.7153,0.15463 -0.9685,0.0639 -1.605,-0.57496 z m 1.5283,-0.7717 c 0,-0.57487 -0.7545,-1.97123 -1.0652,-1.97123 -0.3682,0 -0.3195,1.68452 0.06,2.06375 0.4464,0.4464 1.0055,0.39496 1.0055,-0.0925 z m 2.3841,-0.31758 c 0,-0.25467 0.077,-0.90951 0.1669,-1.45521 0.1513,-0.91525 0.1152,-0.99191 -0.4659,-0.98858 -1.8294,0.0105 -2.2421,0.65628 -1.3666,2.13838 0.5182,0.87738 1.6607,1.08685 1.6656,0.30541 z m 3.3796,-1.04791 c -0.074,-1.49418 -0.085,-1.51301 -0.9995,-1.69953 -0.5083,-0.10374 -0.9399,-0.16797 -0.959,-0.14273 -0.019,0.0252 -0.1168,0.72187 -0.2169,1.54807 -0.1813,1.49636 -0.1792,1.5026 0.5622,1.614 1.7619,0.26474 1.6948,0.31968 1.6132,-1.31981 z m 2.7029,0.18801 c 0,-0.66835 -0.1219,-1.05967 -0.3307,-1.06195 -0.1819,-0.002 -0.5986,-0.0754 -0.9261,-0.16315 -0.4951,-0.13269 -0.5947,-0.0542 -0.5917,0.46664 0.01,1.34647 0.2888,1.81679 1.0856,1.81679 0.7137,0 0.7629,-0.0683 0.7629,-1.05833 z m -7.6183,-2.33031 c 0.1028,-0.1026 0.2685,-1.16533 0.3682,-2.36161 0.1573,-1.885186 0.1231,-2.197436 -0.2563,-2.343036 -0.565,-0.21678 -1.1377,0.27072 -1.7667,1.503646 -0.5857,1.14803 -1.0794,3.14596 -0.8636,3.49505 0.1591,0.25742 2.2053,0.0185 2.5184,-0.29405 z m 7.0065,-0.14941 c -0.077,-0.19967 -0.2235,-0.94381 -0.3263,-1.65364 -0.2225,-1.53591 -0.5055,-1.95206 -1.3276,-1.95206 -0.8295,0 -0.8822,0.15215 -0.684,1.97298 0.1512,1.38857 0.2503,1.59793 0.8331,1.75956 1.1248,0.312 1.656,0.26723 1.5048,-0.12684 z m -3.5035,-0.86481 c 0.096,-0.38428 0.096,-1.33015 0,-2.10193 -0.1605,-1.284626 -0.2416,-1.417796 -0.9593,-1.575446 -0.4312,-0.0947 -0.8302,-0.12602 -0.8867,-0.0696 -0.056,0.0564 -0.1841,1.079786 -0.2837,2.274126 l -0.1811,2.17154 h 1.0677 c 0.9334,0 1.0898,-0.0879 1.2431,-0.6987 z m 1.5198,-21.599007 c -0.6272,-0.15056 -1.4904,-0.60075 -1.9182,-1.00042 -0.6468,-0.60419 -0.7779,-0.93569 -0.7779,-1.96658 0,-1.14281 0.1116,-1.35428 1.4263,-2.70073 1.1746,-1.203089 1.6512,-1.502849 2.7009,-1.698969 0.817,-0.15263 1.571,-0.14035 2.0999,0.0342 1.1054,0.36481 2.0662,1.702079 2.0243,2.817369 -0.059,1.57736 -1.4685,3.6724 -3.0128,4.47919 -0.8015,0.4187 -0.94,0.42066 -2.5425,0.036 z m 3.0313,-1.10876 c 1.1896,-0.83325 1.8372,-3.62304 1.1424,-4.92135 -0.3901,-0.728959 -2.9546,-0.719119 -4.1603,0.016 -1.7508,1.06746 -2.4023,3.33244 -1.2812,4.45361 0.7505,0.75046 3.4654,1.03575 4.2991,0.45177 z m -10.1576,-8.890739 c -1.3782,-0.2875 -1.5924,-0.60615 -1.4558,-2.16493 0.093,-1.06709 0.2953,-1.5679 0.871,-2.1614 l 0.7493,-0.7725 2.8604,0.30986 c 1.5733,0.17042 3.4855,0.30968 4.2495,0.30947 l 1.3891,-3.8e-4 0.041,1.38906 c 0.056,1.88417 -0.03,2.66429 -0.3274,2.96704 -0.2871,0.29259 -7.0864,0.39306 -8.3772,0.12378 z m 7.5806,-0.87843 c 0.1908,-0.22994 0.2398,-0.77417 0.1309,-1.45521 -0.1569,-0.98126 -0.2485,-1.08791 -0.9339,-1.08791 -0.6646,0 -0.7599,0.0976 -0.7599,0.77814 0,0.42797 -0.1191,0.85172 -0.2646,0.94166 -0.1456,0.0899 -0.2646,0.39462 -0.2646,0.67707 0,0.40698 0.1854,0.51355 0.8936,0.51355 0.4915,0 1.0309,-0.16529 1.1985,-0.3673 z m -5.9146,-1.61733 c 0.013,-1.33104 -0.036,-1.45495 -0.5736,-1.45495 -1.1993,0 -1.4247,0.25569 -1.4247,1.61581 v 1.2946 l 0.9921,-2.5e-4 0.9922,-2.6e-4 z m 3.1329,0.69283 c 0.6805,-0.75194 0.323,-1.78455 -0.6879,-1.98671 -0.4429,-0.0886 -0.9538,-0.16107 -1.1353,-0.16107 -0.3506,0 -0.7795,1.97743 -0.52,2.3973 0.2741,0.44344 1.8698,0.27351 2.3432,-0.24952 z m 9.8586,1.90494 c -0.1184,-0.11894 -1.1164,-0.2758 -2.2179,-0.34856 -1.7681,-0.11679 -2.0624,-0.21248 -2.5119,-0.81665 -0.7218,-0.97013 -0.9104,-2.71283 -0.3809,-3.52088 0.4515,-0.68911 0.9048,-0.69486 2.424,-0.0308 0.4365,0.19084 1.6867,0.60526 2.7781,0.92095 1.0914,0.31568 2.163,0.67168 2.3813,0.7911 0.4803,0.26283 0.4346,2.0754 -0.065,2.55985 -0.4262,0.41362 -2.1265,0.72781 -2.408,0.44497 z m 1.8941,-1.86991 c 0.094,-0.97275 -0.037,-1.01785 -1.3554,-0.46703 -1.6967,0.7089 -1.4921,1.53308 0.3465,1.39598 0.8343,-0.0622 0.9342,-0.15422 1.0089,-0.92895 z m -3.9194,0.24794 c 0,-0.1183 -0.3572,-0.55729 -0.7937,-0.97554 -0.4366,-0.41826 -0.7938,-0.91678 -0.7938,-1.10784 0,-0.19105 -0.1786,-0.34737 -0.3968,-0.34737 -0.2918,0 -0.3969,0.30378 -0.3969,1.14652 0,0.6306 0.079,1.22591 0.1764,1.32292 0.2527,0.25276 2.2048,0.21851 2.2048,-0.0387 z m 1.5408,-1.19591 c 0.057,-0.29406 -0.092,-0.44109 -0.4474,-0.44109 -0.2931,0 -0.6066,-0.11906 -0.6965,-0.26459 -0.09,-0.14552 -0.3438,-0.26458 -0.5642,-0.26458 -0.6174,0 -0.3153,0.86704 0.4343,1.246 0.789,0.39892 1.1585,0.31895 1.2738,-0.27574 z"
         style="fill:#000000;stroke-width:0.26458335" />
    </g>
  </g>
</svg>
